<?xml version="1.0" standalone="no"?>
<!DOCTYPE svg PUBLIC "-//W3C//DTD SVG 20010904//EN"
 "http://www.w3.org/TR/2001/REC-SVG-20010904/DTD/svg10.dtd">
<svg version="1.0" xmlns="http://www.w3.org/2000/svg"
 width="512.000000pt" height="512.000000pt" viewBox="0 0 512.000000 512.000000"
 preserveAspectRatio="xMidYMid meet">
<metadata>
Created by potrace 1.14, written by Peter Selinger 2001-2017
</metadata>
<g transform="translate(0.000000,512.000000) scale(0.100000,-0.100000)"
fill="#000000" stroke="none">
<path d="M0 2560 l0 -2560 2560 0 2560 0 0 2560 0 2560 -2560 0 -2560 0 0
-2560z m4760 1935 c0 -218 -2 -265 -14 -265 -21 0 -26 48 -26 276 l0 214
-2160 0 -2160 0 0 -519 c0 -285 -3 -533 -6 -550 -4 -17 -13 -31 -20 -31 -12 0
-14 93 -14 570 l0 570 2200 0 2200 0 0 -265z m-3080 -295 c-30 -17 -57 -19
-198 -20 -97 0 -161 -4 -157 -9 3 -5 -2 -16 -10 -24 -17 -17 -21 -42 -5 -32 6
4 10 -34 10 -107 0 -62 3 -186 7 -275 l6 -163 -266 0 -265 0 -56 -64 -56 -63
0 -709 0 -709 95 -95 c59 -59 92 -86 88 -72 -3 12 -11 22 -18 22 -7 0 -18 7
-25 15 -10 12 -9 15 6 16 11 1 6 4 -11 8 -16 3 -30 11 -31 16 -2 23 -17 43
-28 39 -7 -3 -18 7 -24 21 -16 34 -16 33 11 38 18 4 18 4 -6 6 l-28 1 3 73 c3
70 4 72 31 75 15 2 27 7 27 11 0 4 -14 6 -30 3 -18 -3 -30 0 -30 7 0 6 12 11
28 12 26 1 26 1 3 8 -21 6 -24 13 -27 64 -3 56 -3 57 29 65 30 8 31 10 28 50
-2 31 2 44 14 48 9 4 19 3 23 -1 4 -4 1 -10 -5 -12 -36 -13 -3 -23 75 -23 85
0 87 -1 88 -24 2 -20 -5 -26 -35 -34 l-36 -10 36 -1 c36 -1 36 -1 37 -48 1
-27 -4 -51 -11 -56 -9 -7 -9 -10 1 -14 7 -3 12 -23 11 -51 0 -36 -3 -42 -9
-27 -8 18 -9 18 -9 2 -1 -10 6 -20 14 -23 8 -4 12 -10 10 -15 -7 -11 28 -90
41 -92 5 -1 8 -5 6 -9 -1 -5 7 -8 18 -8 11 0 20 -5 20 -12 0 -6 3 -8 7 -5 3 4
12 2 20 -4 10 -9 18 -8 31 5 10 9 31 16 45 16 17 0 27 5 27 15 0 17 30 35 62
36 23 1 23 1 -2 8 -23 6 -20 10 39 39 35 18 59 32 53 32 -7 0 -12 7 -12 15 0
8 3 15 8 15 4 0 6 40 4 90 l-3 90 28 1 c23 2 24 2 6 6 -19 4 -23 11 -23 39 0
28 4 34 23 35 l22 0 -22 9 c-13 5 -23 14 -23 20 0 5 10 11 23 11 20 1 20 2 2
6 -23 6 -45 23 -28 23 6 0 9 15 6 35 -3 29 0 37 19 45 l23 9 -22 0 c-31 1 -38
20 -11 30 16 7 18 10 6 10 -9 1 -20 6 -23 11 -4 6 25 10 79 10 51 0 86 -4 86
-10 0 -5 -14 -10 -32 -10 -25 0 -29 -3 -20 -12 20 -20 14 -28 -25 -29 -24 -1
-29 -3 -15 -6 19 -4 22 -11 22 -53 0 -42 -3 -49 -22 -53 -20 -4 -19 -4 5 -6
26 -1 27 0 27 54 0 48 2 55 20 55 13 0 18 5 14 15 -4 9 0 15 10 15 13 0 16
-12 16 -64 0 -42 -4 -66 -12 -69 -10 -4 -9 -8 2 -16 13 -10 13 -12 0 -21 -11
-7 -12 -12 -4 -17 7 -5 14 -19 17 -33 4 -25 4 -25 6 3 1 24 5 27 35 27 33 0
34 -1 27 -27 -6 -21 -13 -27 -29 -25 -12 2 -22 -2 -22 -7 0 -6 14 -11 30 -11
23 0 30 -4 30 -20 0 -25 -42 -37 -77 -21 -14 7 -28 9 -31 6 -3 -3 1 -5 9 -5
11 0 11 -2 -1 -10 -11 -7 1 -10 42 -10 l57 0 1 -52 c2 -89 1 -93 -11 -97 -8
-2 -8 -5 0 -10 6 -4 11 -20 12 -36 4 -63 2 -65 -48 -67 l-48 -1 55 -7 c59 -6
52 -17 -15 -23 -36 -3 -34 -4 12 -5 40 -2 53 -6 56 -20 3 -9 5 190 6 444 0
253 4 711 8 1017 5 461 9 553 19 539 17 -22 18 -69 2 -76 -10 -5 -10 -7 0 -12
14 -7 17 -84 2 -84 -5 0 -10 -7 -10 -16 0 -8 4 -13 9 -9 12 7 20 -20 19 -70
-1 -192 6 -403 12 -370 7 37 7 38 10 10 10 -110 5 -199 -11 -173 -5 8 -8 -8
-8 -42 1 -46 3 -50 9 -25 10 39 10 40 13 -242 2 -206 0 -244 -13 -248 -11 -5
-11 -8 -2 -14 8 -5 12 -50 13 -152 1 -203 1 -201 -13 -193 -9 5 -8 2 1 -10 16
-19 27 -236 12 -236 -5 0 -7 -9 -4 -20 3 -11 9 -17 14 -14 5 3 6 -2 3 -10 -4
-9 0 -18 9 -21 8 -4 14 -18 15 -33 0 -15 3 -45 6 -67 l5 -40 -11 33 c-7 22
-16 31 -25 27 -8 -3 -21 -5 -29 -5 -8 0 -14 -7 -14 -15 0 -8 -5 -15 -11 -15
-5 0 -7 -4 -4 -10 3 -6 -1 -7 -9 -4 -11 4 -16 0 -16 -11 0 -10 5 -14 13 -9 9
5 9 4 0 -6 -6 -7 -9 -18 -7 -25 3 -6 -2 -18 -11 -25 -8 -7 -15 -8 -15 -2 0 5
-9 8 -20 5 -11 -3 -18 -8 -16 -12 3 -4 1 -13 -5 -21 -6 -12 -9 -12 -9 -2 0 10
-3 10 -15 -2 -9 -8 -12 -22 -8 -33 6 -17 6 -17 -14 0 -18 16 -21 16 -26 2 -4
-8 -16 -15 -27 -15 -11 0 -20 -4 -20 -10 0 -5 -6 -7 -14 -4 -9 3 -13 -1 -13
-13 1 -11 -4 -17 -13 -15 -11 2 -10 -1 3 -12 10 -8 14 -17 8 -20 -5 -3 -11 -2
-13 2 -1 5 -21 -4 -43 -20 -39 -29 -40 -29 -10 -24 27 6 27 5 7 -4 -13 -5 -21
-14 -18 -19 3 -5 -10 -16 -30 -26 -26 -12 -38 -14 -49 -5 -10 8 -16 7 -23 -6
-6 -11 -11 -13 -16 -5 -4 6 -2 11 3 11 6 0 11 5 11 11 0 6 -7 8 -16 5 -8 -3
-12 -2 -9 4 3 6 1 10 -4 10 -16 0 -13 -17 5 -46 10 -15 13 -29 8 -34 -6 -6
-122 104 -292 274 l-282 283 0 722 1 723 76 84 76 84 249 0 248 0 0 269 c0
160 -4 272 -10 276 -5 3 -19 19 -30 35 l-21 30 243 0 243 -1 -35 -19z m1100 0
c-30 -17 -57 -19 -197 -20 -135 0 -163 -2 -163 -14 0 -8 -4 -18 -10 -21 -5 -3
-7 0 -4 9 4 10 -2 15 -22 18 -15 2 -33 13 -42 26 l-14 22 243 0 244 -1 -35
-19z m2145 9 c11 0 36 2 55 5 l35 6 -36 -18 c-52 -25 -357 -25 -409 0 -34 18
-31 18 150 12 102 -3 194 -5 205 -5z m-3274 -94 c5 4 9 -10 9 -29 0 -20 -4
-36 -9 -36 -5 0 -12 -8 -14 -17 -3 -10 -4 18 -4 62 0 44 2 65 4 47 2 -18 9
-30 14 -27z m769 -187 c0 -117 -3 -177 -10 -173 -6 4 -10 -11 -9 -37 1 -35 2
-38 8 -18 6 21 8 18 14 -24 4 -27 7 -62 7 -77 l0 -29 -262 0 -262 0 -58 -57
-58 -57 0 -632 c0 -577 1 -633 17 -645 15 -13 15 -12 5 8 -15 27 -16 73 -1 73
6 0 7 5 2 13 -9 14 -12 57 -3 57 4 0 2 25 -3 55 -9 45 -8 58 5 72 12 14 13 21
5 29 -8 6 -10 32 -7 70 l4 59 7 -50 6 -50 1 53 c2 49 4 53 25 50 18 -2 23 -10
25 -45 3 -37 0 -42 -20 -46 -21 -4 -21 -4 4 -6 22 -1 28 4 33 29 11 48 41 39
36 -12 -1 -9 3 -20 10 -24 8 -4 9 -3 5 4 -4 6 -4 23 0 37 6 25 9 26 63 23 l56
-3 0 -45 0 -45 -80 -1 c-44 0 -83 4 -86 9 -3 5 -9 2 -12 -7 -5 -14 5 -16 71
-17 42 -1 85 -1 95 0 9 1 17 -4 17 -13 0 -9 -8 -17 -17 -17 -17 -1 -17 -2 0
-6 12 -3 17 -15 17 -39 0 -21 -4 -33 -10 -29 -5 3 -10 1 -10 -4 0 -6 5 -11 10
-11 6 0 10 -9 10 -20 0 -11 3 -20 8 -20 4 0 21 -14 39 -30 18 -17 37 -30 43
-30 6 0 15 -11 22 -24 7 -18 22 -27 49 -31 21 -4 43 -4 49 0 5 3 10 0 10 -7 1
-8 6 -6 15 6 8 11 21 21 28 23 59 13 80 21 59 22 -14 1 -20 5 -17 12 4 6 13 8
21 5 8 -3 14 -1 14 5 0 6 4 8 9 4 5 -3 12 -1 16 5 3 5 1 10 -6 10 -8 0 -5 7 6
20 9 10 15 26 12 35 -5 11 0 15 18 15 22 0 25 -4 25 -35 0 -28 -4 -35 -20 -35
-11 0 -20 -4 -20 -9 0 -13 75 -24 120 -18 27 3 23 4 -17 5 -52 2 -53 3 -53 32
0 24 4 30 23 31 37 2 62 -2 65 -12 6 -15 22 -10 22 6 0 8 6 15 13 15 8 0 7 4
-3 10 -13 8 -12 10 3 10 13 0 17 -9 18 -42 l1 -43 9 33 c5 17 15 32 22 33 7 0
3 4 -8 9 -16 7 -13 9 15 9 19 -1 30 -3 24 -5 -8 -3 -9 -19 -3 -51 10 -50 6
-58 -26 -66 -15 -4 -13 -5 8 -6 38 -1 34 -21 -5 -22 -27 -1 -28 -3 -9 -6 l24
-5 -29 -25 c-21 -18 -16 -16 19 7 l47 31 1 772 c1 425 5 754 9 732 4 -22 9
-33 10 -25 11 50 18 -280 19 -855 1 -667 -2 -767 -23 -759 -6 2 -16 -6 -21
-18 -6 -14 -17 -22 -28 -20 -9 2 -25 -2 -35 -7 -14 -9 -12 -10 13 -9 17 1 44
10 60 21 30 19 30 19 -3 -13 -19 -17 -40 -29 -47 -26 -7 2 -12 -2 -11 -11 0
-9 -5 -18 -13 -21 -10 -3 -12 0 -8 12 4 9 2 16 -3 16 -6 0 -11 -9 -11 -20 -1
-11 -3 -24 -4 -30 -1 -5 -3 -13 -4 -17 0 -4 -8 2 -16 13 -14 18 -16 18 -26 2
-5 -10 -16 -18 -24 -18 -8 0 -12 -9 -10 -25 1 -14 -2 -28 -6 -31 -5 -3 -9 1
-10 8 0 7 -5 2 -10 -11 -6 -15 -14 -21 -24 -17 -9 3 -18 -1 -21 -9 -4 -8 -11
-15 -16 -15 -6 0 -17 -8 -25 -17 -14 -17 -14 -17 -9 -1 5 15 3 16 -15 5 -18
-11 -18 -13 -2 -24 17 -13 12 -17 -19 -14 -10 1 -18 -4 -18 -11 0 -7 -13 -20
-29 -29 -27 -16 -28 -16 -44 10 -16 25 -16 25 -17 4 0 -12 5 -23 11 -25 7 -2
0 -12 -15 -22 -27 -17 -28 -17 -33 3 -3 12 -9 21 -13 21 -5 0 -16 7 -24 16 -9
8 -16 11 -16 5 0 -5 6 -16 13 -23 16 -16 11 -38 -9 -38 -8 0 -13 3 -13 8 6 38
-4 63 -31 77 -28 14 -30 14 -30 -2 -1 -15 -3 -14 -13 4 -7 12 -14 21 -17 20
-3 -1 -25 18 -50 42 -25 25 -40 41 -33 38 8 -5 8 2 1 28 -12 38 -32 38 -22 -1
8 -33 -9 -30 -39 6 -14 16 -30 30 -36 30 -6 0 -11 5 -11 11 0 5 6 7 13 4 6 -4
0 3 -15 15 -30 24 -35 37 -15 42 9 2 7 8 -6 21 -18 18 -19 18 -12 -2 8 -25 -2
-27 -35 -4 l-25 17 20 -24 20 -23 -25 14 c-14 8 -26 15 -28 16 -2 0 -5 7 -6
15 -2 7 -8 27 -15 43 -47 118 -45 73 -37 753 l6 637 68 68 68 68 203 1 c112 1
225 3 252 6 l49 5 0 247 c0 213 2 247 15 247 13 0 15 -27 15 -179z m-726 -164
c3 -8 2 -12 -4 -9 -6 3 -10 10 -10 16 0 14 7 11 14 -7z m2945 -91 c0 -35 -3
-42 -8 -28 -5 11 -7 23 -4 27 2 4 -3 5 -11 2 -10 -4 -16 -1 -16 10 0 10 6 13
15 10 9 -4 15 0 15 10 0 9 2 16 5 16 3 0 5 -21 4 -47z m-2938 -4 c-2 -8 -4
-40 -5 -71 0 -31 -4 -54 -8 -52 -4 3 -8 37 -8 75 0 52 3 69 13 66 6 -2 10 -11
8 -18z m787 -40 c-3 -33 -4 -33 -8 8 -3 23 -2 39 3 34 5 -5 7 -24 5 -42z m69
15 c-3 -3 -12 -4 -19 -1 -8 3 -5 6 6 6 11 1 17 -2 13 -5z m-2042 -55 c-34 -15
-64 -19 -190 -19 l-150 0 6 -767 c3 -423 7 -961 8 -1197 1 -310 4 -427 12
-419 7 7 11 67 11 162 0 83 4 154 9 157 5 3 9 10 9 15 0 6 -5 7 -10 4 -6 -4
-10 15 -10 49 0 30 4 58 10 61 5 3 9 30 8 58 l-1 52 -7 -50 -7 -50 -1 53 c-1
29 2 52 8 52 6 0 10 9 10 20 0 16 7 20 33 21 30 2 30 2 -8 8 l-40 6 0 65 0 65
45 6 45 6 -47 1 c-45 2 -46 3 -42 30 3 15 8 64 12 109 4 45 9 84 12 86 8 8
179 11 186 4 4 -3 8 -35 11 -70 5 -72 -2 -83 -57 -90 -30 -3 -28 -4 13 -5 45
-2 47 -3 47 -32 0 -21 -5 -30 -17 -31 -17 -1 -17 -2 0 -6 14 -4 17 -17 18 -66
l2 -62 8 75 c4 41 8 430 8 864 1 434 3 791 5 794 2 2 14 -1 25 -8 19 -9 21
-21 23 -103 l2 -92 5 95 c5 82 10 100 31 127 14 18 28 32 31 32 3 1 13 -15 22
-34 13 -27 14 -36 4 -42 -23 -14 -57 -71 -63 -105 -6 -40 -6 -39 1 -158 9
-139 11 -330 4 -330 -3 0 -6 -7 -6 -15 0 -8 3 -15 6 -15 9 0 7 -103 -2 -118
-5 -7 -5 -22 -1 -35 8 -25 8 -373 -1 -387 -3 -5 -1 -11 4 -14 12 -8 6 -128 -8
-154 -7 -12 -8 -22 -2 -22 5 0 9 -47 8 -107 0 -101 8 -162 20 -149 13 13 73
-103 73 -140 0 -15 -41 -15 -53 1 -5 6 -7 4 -4 -5 2 -8 12 -14 21 -14 10 1 16
-6 16 -18 0 -13 -4 -17 -12 -12 -10 6 -10 4 -2 -7 13 -16 24 -64 28 -127 3
-34 1 -42 -10 -38 -8 3 -14 2 -14 -2 0 -4 -3 -17 -6 -30 -5 -18 -3 -21 10 -16
9 3 16 2 16 -3 0 -13 -32 -12 -46 1 -6 6 -13 18 -17 26 -4 12 -6 12 -6 -2 -1
-10 17 -34 38 -54 41 -37 52 -75 19 -66 -10 2 -16 8 -13 12 2 4 -2 16 -9 26
-13 17 -14 16 -9 -11 3 -17 11 -37 17 -45 6 -8 -8 0 -32 19 l-43 33 22 -42
c12 -23 28 -44 35 -47 21 -8 17 -40 -6 -46 -11 -3 -20 -12 -20 -21 0 -12 5
-14 25 -6 14 5 32 7 40 4 19 -8 19 0 -1 20 -8 9 -11 16 -5 16 6 0 17 -13 26
-30 13 -24 13 -29 1 -24 -8 3 -17 1 -21 -5 -3 -6 -11 -11 -17 -11 -7 0 -6 5 1
14 10 12 9 13 -8 9 -11 -3 -21 -15 -23 -27 -2 -14 -11 -21 -27 -22 -13 -1 -27
-7 -31 -13 -4 -7 -20 -11 -35 -9 -17 2 -29 -2 -31 -10 -1 -7 0 -8 3 -2 9 19
21 10 21 -15 0 -14 -2 -25 -3 -25 -22 0 -64 26 -69 43 -5 21 -21 17 -21 -6 -1
-7 -6 -11 -13 -9 -7 1 -12 -2 -12 -8 0 -13 17 -13 25 0 4 6 16 4 31 -6 23 -15
23 -17 7 -29 -10 -7 -21 -11 -25 -8 -5 2 -11 -3 -14 -12 -4 -11 -13 -14 -28
-9 -17 6 -19 4 -10 -7 5 -8 9 -20 8 -26 -1 -7 -3 -25 -4 -40 -2 -27 -2 -27 -8
-5 -8 26 -14 26 -60 -1 -26 -16 -30 -22 -21 -33 22 -26 4 -23 -70 12 -72 36
-73 36 -65 67 4 18 9 581 11 1253 l3 1220 -25 24 c-14 13 -25 27 -25 32 0 4
105 8 233 7 l232 -1 -40 -19z m2832 -4 c26 -14 26 -15 6 -15 -13 0 -23 6 -24
13 0 10 -2 10 -6 0 -3 -10 -47 -13 -167 -13 l-163 0 -57 -67 -56 -67 0 -738
c0 -406 4 -738 8 -738 17 0 18 10 11 62 -3 29 -3 59 1 67 4 7 4 29 0 48 -6 26
-5 36 6 40 12 4 11 8 -3 18 -16 12 -15 14 12 20 49 11 52 13 17 14 l-33 1 3
48 3 47 53 3 c28 2 52 -1 52 -7 0 -5 10 -6 23 -3 22 6 22 6 -3 13 -14 4 -49 7
-77 8 -57 1 -74 20 -20 23 l32 1 -32 4 c-20 3 -33 10 -33 19 0 10 14 14 55 14
41 0 55 -4 55 -14 0 -8 -10 -17 -22 -19 -23 -4 -23 -4 0 -6 16 -1 26 6 29 19
4 16 14 20 52 22 38 1 40 2 13 5 l-34 4 5 81 c4 51 10 84 19 89 10 7 10 9 1 9
-7 0 -13 5 -13 10 0 6 11 10 25 10 21 0 25 -5 26 -32 1 -18 3 -25 6 -15 2 9
11 17 19 17 12 0 15 -12 13 -55 -1 -30 0 -58 4 -62 13 -12 7 -42 -10 -52 -15
-9 -15 -10 -2 -11 12 0 16 -16 18 -87 1 -62 -2 -88 -11 -94 -10 -7 -10 -9 0
-9 6 0 12 -11 12 -25 0 -14 11 -37 24 -50 21 -20 22 -25 8 -28 -11 -3 -9 -5 6
-6 35 -2 64 -20 58 -37 -4 -9 2 -14 17 -14 25 -1 67 -32 67 -50 0 -11 73 36
118 78 14 12 30 22 35 22 6 0 7 3 4 7 -4 3 -2 12 3 18 6 7 11 29 12 50 1 27 7
39 22 45 l21 9 -21 0 c-20 1 -21 6 -20 66 0 36 5 65 10 65 5 0 3 6 -3 13 -6 8
-9 16 -6 19 3 2 6 64 7 137 1 73 6 135 11 138 5 3 3 9 -4 14 -11 7 -9 9 6 9
17 0 20 -7 22 -56 1 -31 4 -58 6 -61 3 -3 31 -6 61 -8 52 -3 56 -2 56 18 0 19
6 22 40 24 l40 3 2 -48 1 -47 4 43 c2 23 8 42 12 42 5 0 8 -128 9 -285 0 -206
-2 -285 -11 -285 -8 0 -8 -3 0 -11 6 -6 16 -8 22 -5 8 5 11 218 11 720 0 628
-2 715 -15 726 -26 22 -101 115 -85 105 8 -4 12 -5 9 -1 -4 4 -78 7 -164 7
-87 0 -154 3 -151 6 4 4 22 6 41 5 18 -1 36 2 40 8 8 13 52 13 60 0 3 -5 21
-10 40 -10 19 0 37 5 40 10 3 6 23 10 43 10 32 -1 48 -11 109 -68 l72 -67 7
-725 6 -725 -36 -62 c-20 -35 -41 -63 -45 -63 -5 0 -16 -12 -26 -26 -11 -17
-12 -24 -4 -18 8 4 1 -6 -16 -24 -20 -21 -32 -28 -37 -19 -5 8 -9 7 -13 -5 -9
-22 0 -588 9 -614 12 -35 -82 -122 -100 -93 -3 6 -13 8 -22 4 -9 -3 -4 5 11
19 27 25 39 48 14 28 -7 -6 -18 -7 -26 -3 -11 7 -9 11 5 21 16 10 16 11 2 6
-10 -3 -18 -1 -18 4 0 6 -7 6 -18 -1 -15 -9 -27 -2 -77 46 -32 32 -61 52 -63
46 -2 -6 -15 -2 -33 11 -16 12 -27 28 -25 35 5 12 -6 17 -26 14 -5 0 -8 3 -8
9 0 5 5 10 11 10 5 0 7 5 4 10 -4 6 -15 8 -26 5 -14 -5 -20 0 -23 17 -14 67
-15 91 -6 109 15 27 -4 24 -23 -3 l-16 -23 -7 23 c-6 21 -15 26 -40 23 -6 -1
-17 13 -24 29 -7 18 -18 29 -25 26 -7 -2 -15 5 -18 16 -4 14 -11 19 -21 15
-10 -4 -21 1 -28 13 -10 15 -15 17 -28 7 -8 -6 -12 -8 -8 -3 3 4 -1 16 -10 27
-9 10 -17 29 -17 41 0 17 -6 23 -23 24 -22 1 -22 1 -5 -19 18 -20 18 -20 -9
-3 -16 10 -25 23 -21 32 7 19 -7 18 -22 -3 -9 -13 -14 -13 -20 -3 -6 9 -4 11
5 5 9 -6 10 -2 5 16 -4 13 -8 24 -9 25 -35 21 -95 69 -91 72 3 3 18 -3 33 -14
42 -31 52 -36 52 -26 0 5 -9 12 -20 15 -12 3 -20 14 -20 27 0 17 -5 21 -19 17
-21 -5 -34 13 -26 36 10 26 13 219 14 882 l1 690 74 80 73 80 171 -3 c126 -2
179 -7 199 -17z m928 6 c6 -1 43 1 83 5 53 5 72 4 72 -5 0 -9 28 -11 105 -9
58 2 105 0 105 -4 0 -5 -119 -8 -264 -8 l-264 0 -56 -62 -56 -62 0 -950 c0
-522 2 -947 5 -945 2 3 7 79 11 170 3 90 8 167 11 172 2 4 -1 7 -6 7 -6 0 -10
21 -10 50 1 38 5 50 18 51 13 1 12 2 -2 6 -15 4 -18 15 -16 74 1 38 6 69 12
69 6 0 6 4 0 13 -13 16 -15 164 -3 172 6 3 6 15 0 30 -6 16 -5 25 2 27 8 3 7
10 -1 26 -10 20 -9 23 11 32 17 6 19 9 6 9 -12 1 -18 9 -18 26 0 13 8 29 18
34 16 10 16 10 0 11 -20 0 -25 30 -5 31 10 0 10 2 0 6 -7 2 -13 18 -13 35 0
28 2 30 30 26 26 -4 30 -1 30 19 0 22 4 23 60 23 l60 0 1 -42 c1 -37 2 -39 9
-18 7 22 8 20 9 -15 0 -26 -2 -35 -8 -26 -5 8 -14 10 -21 6 -9 -5 -11 -4 -6 3
4 7 2 12 -3 12 -24 0 -9 -28 17 -33 15 -3 28 -4 29 -3 1 1 3 18 5 39 1 20 6
37 10 37 15 0 8 -63 -9 -82 -15 -17 -15 -18 3 -18 15 0 20 -7 19 -27 0 -34
-13 -45 -37 -32 -12 6 -18 6 -18 -1 0 -5 -22 -10 -49 -10 -28 0 -52 -3 -54 -7
-3 -5 17 -6 45 -4 28 2 55 -2 61 -8 6 -6 21 -11 34 -11 30 0 30 -20 1 -21
l-23 0 23 -11 c20 -10 22 -18 22 -78 0 -60 -2 -68 -22 -78 l-23 -11 23 0 c17
-1 22 -7 22 -29 0 -15 -5 -33 -12 -40 -9 -9 -9 -12 0 -12 8 0 11 -23 11 -70
-1 -64 -3 -70 -22 -71 -22 -2 -22 -2 -1 -6 17 -3 21 -12 22 -48 2 -30 -2 -45
-10 -45 -9 0 -10 -3 -2 -8 15 -10 24 -108 10 -122 -7 -7 -5 -10 7 -10 9 0 17
-6 17 -14 0 -8 11 -17 25 -20 14 -4 25 -11 25 -16 0 -6 6 -10 14 -10 7 0 19
-7 27 -16 10 -13 10 -17 -2 -25 -10 -6 -6 -9 15 -9 16 0 45 -10 65 -22 l36
-23 -35 -6 c-28 -5 -23 -6 25 -7 42 0 54 2 40 8 -11 5 -14 9 -7 9 6 1 21 10
32 21 11 11 27 20 35 20 8 0 15 7 15 15 0 8 4 15 9 15 5 0 11 9 14 20 4 17 -1
15 -34 -12 -93 -77 -84 -72 -113 -53 -14 9 -23 22 -19 28 3 6 1 7 -6 3 -13 -9
-44 12 -36 24 3 4 -3 7 -13 6 -9 0 -16 5 -14 12 1 6 -1 11 -5 11 -20 -3 -34 2
-28 10 3 5 0 13 -6 17 -8 5 -10 2 -5 -7 5 -8 -4 0 -18 18 l-27 32 1 713 c0
680 1 714 19 731 16 16 36 19 157 20 l139 0 3 -556 2 -556 135 0 c84 0 135 4
135 10 0 6 -5 7 -10 4 -6 -4 -35 -3 -65 0 -38 5 -55 12 -58 24 -3 11 -5 9 -6
-6 -1 -20 -6 -23 -46 -23 -25 0 -45 5 -45 11 0 5 -4 7 -10 4 -5 -3 -10 -1 -10
4 0 6 5 11 10 11 6 0 10 6 10 14 0 12 22 15 110 15 97 0 110 -2 111 -17 0 -12
3 -11 9 6 5 12 12 22 15 22 3 0 5 -49 4 -110 l-1 -110 -106 -2 -107 -2 108 -3
c60 -2 107 -8 107 -13 0 -6 -6 -10 -12 -10 -9 0 -9 -3 1 -9 10 -7 12 -22 8
-60 -4 -33 -2 -51 4 -51 11 0 6 -71 -6 -90 -3 -4 1 -10 7 -13 10 -3 10 -7 -1
-20 -9 -11 -10 -17 -2 -17 15 0 15 -132 -1 -148 -9 -9 -9 -12 1 -12 18 0 5
-51 -16 -67 -9 -7 -13 -13 -8 -13 5 0 19 10 32 22 l23 21 0 412 c0 544 12
1654 18 1636 3 -10 6 -10 12 -2 13 23 20 -370 20 -1220 l0 -856 -272 -205
c-311 -234 -323 -242 -338 -233 -7 4 -14 -2 -17 -13 -6 -24 -32 -37 -47 -22
-7 7 -4 14 8 23 17 12 17 14 2 20 -9 4 -16 3 -16 -2 0 -4 -7 -8 -15 -8 -8 0
-15 4 -15 9 0 4 7 8 16 8 9 0 12 5 8 12 -5 8 -2 9 9 5 10 -3 17 -2 17 3 0 14
-23 12 -39 -3 -11 -9 -13 -9 -7 0 8 15 -10 18 -19 3 -9 -15 -38 -12 -32 3 3 8
-9 21 -29 32 -19 10 -34 22 -34 27 0 4 -7 8 -15 8 -8 0 -15 7 -15 16 0 13 -3
14 -14 5 -12 -10 -22 -5 -52 24 -21 20 -43 34 -51 31 -9 -4 -18 5 -25 24 -6
19 -16 29 -26 28 -9 -2 -17 4 -17 12 0 9 -11 16 -27 18 -31 4 -34 11 -15 31 6
8 -1 5 -17 -5 l-29 -18 17 33 c17 31 17 32 -2 22 -18 -9 -18 -3 -17 177 1 103
5 196 9 207 4 11 12 30 17 43 5 13 9 38 9 58 0 19 9 50 19 70 18 33 20 59 21
287 0 186 4 253 13 259 9 6 9 8 0 8 -8 0 -13 13 -13 33 0 18 6 39 13 46 10 11
10 13 0 7 -10 -5 -13 6 -13 43 0 34 4 51 13 52 10 0 10 2 0 6 -10 3 -13 47
-13 169 0 108 3 163 10 159 6 -3 10 -1 10 4 0 6 -4 11 -10 11 -6 0 -9 31 -8
78 1 72 2 74 8 27 7 -49 7 -48 8 23 1 47 -2 71 -8 67 -6 -4 -9 30 -9 97 1 57
4 91 6 75 7 -43 23 -21 23 31 0 45 3 51 63 109 46 45 68 60 85 57 12 -2 22 0
22 5 0 6 91 7 145 2z m-1809 -79 c-12 -11 -17 7 -9 34 l8 29 3 -28 c2 -16 1
-31 -2 -35z m-1486 -36 c-6 -6 -10 -21 -10 -35 0 -42 -12 -15 -14 31 -2 41 -1
43 16 29 12 -10 14 -19 8 -25z m50 34 c0 -5 -2 -10 -4 -10 -3 0 -8 5 -11 10
-3 6 -1 10 4 10 6 0 11 -4 11 -10z m663 -62 c3 -40 2 -68 -4 -68 -5 0 -9 32
-9 72 0 87 6 86 13 -4z m667 68 c0 -9 -40 -13 -46 -5 -3 5 6 9 20 9 14 0 26
-2 26 -4z m43 -3 c-7 -2 -19 -2 -25 0 -7 3 -2 5 12 5 14 0 19 -2 13 -5z m1864
1 c-3 -3 -12 -4 -19 -1 -8 3 -5 6 6 6 11 1 17 -2 13 -5z m-3897 -8 c0 -2 -7
-7 -16 -10 -8 -3 -12 -2 -9 4 6 10 25 14 25 6z m875 -17 c-3 -8 -15 -20 -27
-28 -20 -12 -20 -11 3 17 25 31 33 34 24 11z m-195 7 c0 -2 -8 -10 -17 -17
-16 -13 -17 -12 -4 4 13 16 21 21 21 13z m1177 -11 c0 -8 -4 -12 -9 -9 -4 3
-8 0 -8 -6 0 -6 -5 -8 -11 -5 -8 5 10 28 27 35 0 0 1 -7 1 -15z m243 5 c0 -5
-2 -10 -4 -10 -3 0 -8 5 -11 10 -3 6 -1 10 4 10 6 0 11 -4 11 -10z m-1059 -17
c13 -16 12 -17 -3 -4 -10 7 -18 15 -18 17 0 8 8 3 21 -13z m764 7 c3 -5 -1
-10 -10 -10 -9 0 -13 5 -10 10 3 6 8 10 10 10 2 0 7 -4 10 -10z m165 -5 c0 -8
-2 -15 -4 -15 -2 0 -6 7 -10 15 -3 8 -1 15 4 15 6 0 10 -7 10 -15z m54 6 c3
-5 -1 -11 -9 -14 -9 -4 -12 -1 -8 9 6 16 10 17 17 5z m1776 -5 c0 -2 -19 -3
-42 -3 -38 -1 -40 0 -13 6 26 6 55 4 55 -3z m100 -1 c0 -8 -2 -15 -4 -15 -2 0
-6 7 -10 15 -3 8 -1 15 4 15 6 0 10 -7 10 -15z m-1847 -19 c-10 -13 -19 -23
-21 -21 -7 6 19 45 29 45 5 0 2 -11 -8 -24z m-1576 -18 c-3 -7 -5 -2 -5 12 0
14 2 19 5 13 2 -7 2 -19 0 -25z m-483 7 c-4 -8 -8 -15 -10 -15 -2 0 -4 7 -4
15 0 8 4 15 10 15 5 0 7 -7 4 -15z m1955 2 c8 -10 7 -14 -2 -14 -8 0 -14 6
-14 14 0 7 1 13 2 13 2 0 8 -6 14 -13z m1930 0 c8 -10 7 -14 -2 -14 -8 0 -14
6 -14 14 0 7 1 13 2 13 2 0 8 -6 14 -13z m-3354 -7 c3 -5 -1 -10 -10 -10 -9 0
-13 5 -10 10 3 6 8 10 10 10 2 0 7 -4 10 -10z m1542 -27 c-3 -10 -5 -4 -5 12
0 17 2 24 5 18 2 -7 2 -21 0 -30z m-1435 -18 c-3 -23 1 -41 10 -47 10 -8 10
-9 -2 -5 -10 2 -17 21 -20 50 -4 31 -2 46 4 44 6 -2 9 -21 8 -42z m1690 6 c2
-17 1 -28 -4 -25 -8 5 -12 54 -4 54 2 0 6 -13 8 -29z m-502 5 c0 -2 -7 -7 -16
-10 -8 -3 -12 -2 -9 4 6 10 25 14 25 6z m1930 -1 c0 -7 -30 -13 -34 -7 -3 4 4
9 15 9 10 1 19 0 19 -2z m-3813 -42 c-3 -10 -5 -4 -5 12 0 17 2 24 5 18 2 -7
2 -21 0 -30z m1123 15 c0 -16 -3 -19 -11 -11 -6 6 -8 16 -5 22 11 17 16 13 16
-11z m2857 -24 c2 -13 1 -14 -3 -4 -4 8 -16 23 -28 34 l-21 18 25 -14 c14 -9
26 -24 27 -34z m-2440 17 c0 -11 -5 -18 -9 -15 -4 3 -5 11 -1 19 7 21 12 19
10 -4z m612 -8 c-1 -22 -2 -23 -6 -8 -3 11 -10 23 -17 27 -7 5 -5 8 7 8 12 0
17 -7 16 -27z m-264 -12 c-3 -6 -11 -11 -16 -11 -5 0 -4 6 3 14 14 16 24 13
13 -3z m1935 -1 c0 -13 -5 -18 -15 -14 -11 5 -12 9 -2 20 16 18 17 17 17 -6z
m-3763 -22 c-3 -7 -5 -2 -5 12 0 14 2 19 5 13 2 -7 2 -19 0 -25z m708 22 c-3
-5 -20 -19 -38 -30 l-32 -22 35 31 c35 32 46 38 35 21z m402 -22 c-3 -7 -5 -2
-5 12 0 14 2 19 5 13 2 -7 2 -19 0 -25z m870 -19 c-4 -10 -8 -7 -12 8 -4 13
-11 21 -14 18 -4 -2 -8 3 -8 11 0 12 4 11 20 -4 11 -11 17 -26 14 -33z m1938
-16 c-6 -16 -8 -16 -18 7 -6 14 -14 27 -17 30 -3 3 -6 12 -8 20 -2 9 8 4 24
-12 19 -19 25 -32 19 -45z m52 15 c-2 -13 -4 -5 -4 17 -1 22 1 32 4 23 2 -10
2 -28 0 -40z m-2197 32 c0 -5 -4 -10 -10 -10 -5 0 -10 5 -10 10 0 6 5 10 10
10 6 0 10 -4 10 -10z m560 7 c0 -2 -10 -12 -22 -23 l-23 -19 19 23 c18 21 26
27 26 19z m1370 -7 c0 -5 -2 -10 -4 -10 -3 0 -8 5 -11 10 -3 6 -1 10 4 10 6 0
11 -4 11 -10z m560 7 c0 -2 -10 -12 -22 -23 l-23 -19 19 23 c18 21 26 27 26
19z m-4309 -24 c13 -16 12 -17 -3 -4 -17 13 -22 21 -14 21 2 0 10 -8 17 -17z
m751 -13 c-18 -17 -27 -30 -22 -30 6 0 8 -5 5 -10 -4 -6 -3 -10 2 -9 4 1 65 1
136 0 l127 -1 0 -549 0 -550 -105 -75 c-58 -42 -108 -76 -111 -76 -3 0 -28 18
-55 41 l-49 41 0 572 c0 315 3 576 8 580 4 4 7 12 7 17 0 9 75 78 85 78 3 0
-10 -13 -28 -29z m131 10 c-3 -12 -8 -19 -11 -16 -5 6 5 36 12 36 2 0 2 -9 -1
-20z m154 -17 c-3 -10 -5 -4 -5 12 0 17 2 24 5 18 2 -7 2 -21 0 -30z m913 22
c0 -8 -2 -15 -4 -15 -2 0 -6 7 -10 15 -3 8 -1 15 4 15 6 0 10 -7 10 -15z
m1930 0 c0 -8 -2 -15 -4 -15 -2 0 -6 7 -10 15 -3 8 -1 15 4 15 6 0 10 -7 10
-15z m-3313 -42 c-3 -10 -5 -2 -5 17 0 19 2 27 5 18 2 -10 2 -26 0 -35z m1581
28 c3 -8 0 -11 -7 -7 -6 4 -11 1 -11 -6 0 -9 -3 -9 -10 2 -5 8 -10 19 -10 23
0 14 33 3 38 -12z m1929 2 c2 -6 -3 -10 -14 -8 -10 2 -22 4 -26 4 -5 1 -5 6
-2 12 9 13 37 8 42 -8z m260 -30 c-3 -10 -5 -4 -5 12 0 17 2 24 5 18 2 -7 2
-21 0 -30z m-3697 14 c0 -8 -7 -14 -15 -14 -11 0 -12 4 -4 14 6 7 13 13 15 13
2 0 4 -6 4 -13z m467 -9 c-3 -8 -6 -5 -6 6 -1 11 2 17 5 13 3 -3 4 -12 1 -19z
m493 7 c-7 -8 -18 -15 -24 -15 -6 0 -2 7 8 15 25 19 32 19 16 0z m57 -17 c-3
-7 -5 -2 -5 12 0 14 2 19 5 13 2 -7 2 -19 0 -25z m2279 7 c3 -17 -12 -20 -21
-5 -3 6 -1 10 5 10 6 0 8 6 4 13 -4 6 -3 8 1 4 5 -4 10 -14 11 -22z m-186 -1
c0 -8 -5 -12 -10 -9 -6 4 -8 11 -5 16 9 14 15 11 15 -7z m-3257 -19 c-7 -21
-13 -19 -13 6 0 11 4 18 10 14 5 -3 7 -12 3 -20z m184 3 c-3 -8 -6 -5 -6 6 -1
11 2 17 5 13 3 -3 4 -12 1 -19z m1480 -10 c-3 -7 -5 -2 -5 12 0 14 2 19 5 13
2 -7 2 -19 0 -25z m-526 5 c13 -16 12 -17 -3 -4 -10 7 -18 15 -18 17 0 8 8 3
21 -13z m1324 7 c-4 -6 26 -10 84 -10 62 0 91 4 94 13 4 9 8 9 15 -1 5 -8 13
-12 18 -10 5 2 10 -237 12 -558 l2 -562 -69 -61 c-38 -34 -73 -61 -77 -61 -5
0 -24 16 -43 35 -19 19 -56 52 -82 72 l-49 37 0 530 c0 479 2 531 17 548 9 10
27 18 40 18 12 0 23 5 23 10 0 6 5 10 11 10 5 0 7 -4 4 -10z m-2495 -25 c-9
-11 -9 -15 -1 -15 7 0 9 -5 5 -12 -6 -9 -9 -9 -11 -1 -3 7 -12 9 -21 6 -11 -4
-8 2 8 18 27 27 41 30 20 4z m1075 5 c3 -6 -1 -7 -9 -4 -18 7 -21 14 -7 14 6
0 13 -4 16 -10z m568 -12 c3 -13 6 -220 7 -460 l1 -437 -87 -65 c-54 -41 -91
-63 -98 -58 -6 5 -44 34 -83 66 l-73 57 0 447 c0 335 3 451 12 460 8 8 59 12
164 12 149 0 152 0 157 -22z m268 5 c13 -16 12 -17 -3 -4 -17 13 -22 21 -14
21 2 0 10 -8 17 -17z m1519 8 c0 -5 -7 -11 -14 -14 -10 -4 -13 -1 -9 9 6 15
23 19 23 5z m-3323 -38 c-3 -10 -5 -4 -5 12 0 17 2 24 5 18 2 -7 2 -21 0 -30z
m1013 33 c0 -2 -7 -6 -15 -10 -8 -3 -15 -1 -15 4 0 6 7 10 15 10 8 0 15 -2 15
-4z m677 -18 c-3 -8 -6 -5 -6 6 -1 11 2 17 5 13 3 -3 4 -12 1 -19z m1530 -40
c-2 -13 -4 -3 -4 22 0 25 2 35 4 23 2 -13 2 -33 0 -45z m153 52 c0 -5 -5 -10
-11 -10 -5 0 -7 5 -4 10 3 6 8 10 11 10 2 0 4 -4 4 -10z m-3440 -4 c0 -3 -4
-8 -10 -11 -5 -3 -10 -1 -10 4 0 6 5 11 10 11 6 0 10 -2 10 -4z m100 -38 c0
-28 -3 -39 -10 -32 -9 9 -3 74 6 74 2 0 4 -19 4 -42z m1057 10 c-3 -7 -5 -2
-5 12 0 14 2 19 5 13 2 -7 2 -19 0 -25z m2103 1 c0 -3 -7 -6 -15 -6 -15 0 -20
18 -8 30 6 7 22 -10 23 -24z m90 10 c0 -5 -4 -9 -10 -9 -5 0 -10 7 -10 16 0 8
5 12 10 9 6 -3 10 -10 10 -16z m-1614 -11 l19 -23 -25 20 c-14 11 -27 21 -29
22 -2 2 0 3 6 3 5 0 18 -10 29 -22z m-1748 -15 c-2 -14 6 -19 42 -23 31 -3 45
-10 45 -20 0 -18 -43 -26 -58 -11 -7 7 -3 8 12 4 12 -3 21 -1 21 6 0 16 -70
14 -70 -1 -1 -9 -5 -8 -13 3 -7 9 -19 14 -27 12 -8 -2 -2 3 13 12 15 9 25 20
22 25 -4 6 -1 10 5 10 6 0 10 -8 8 -17z m3386 2 c-4 -8 -11 -12 -16 -9 -6 4
-5 10 3 15 19 12 19 11 13 -6z m623 -17 c-3 -7 -5 -2 -5 12 0 14 2 19 5 13 2
-7 2 -19 0 -25z m-3232 12 c3 -5 1 -10 -4 -10 -6 0 -11 5 -11 10 0 6 2 10 4
10 3 0 8 -4 11 -10z m315 6 c0 -11 -19 -15 -25 -6 -3 5 1 10 9 10 9 0 16 -2
16 -4z m687 -63 c-2 -16 -4 -5 -4 22 0 28 2 40 4 28 2 -13 2 -35 0 -50z m87
41 c3 -8 2 -12 -4 -9 -6 3 -10 10 -10 16 0 14 7 11 14 -7z m1522 -42 c-8 -8
-46 29 -46 44 0 7 11 2 26 -13 14 -14 23 -28 20 -31z m-3239 -9 c0 -31 -1 -37
-4 -15 -2 17 -8 32 -13 32 -4 0 -6 9 -3 20 9 33 19 14 20 -37z m924 40 c13
-16 12 -17 -3 -4 -17 13 -22 21 -14 21 2 0 10 -8 17 -17z m69 -14 c0 -17 4
-28 10 -24 6 3 10 -1 10 -9 0 -10 -6 -13 -15 -10 -8 4 -15 14 -15 24 0 11 -5
22 -10 25 -12 7 -4 25 11 25 5 0 9 -14 9 -31z m560 20 c0 -5 6 -7 13 -3 10 6
10 4 0 -7 -16 -16 -17 -40 -2 -36 6 1 13 -3 15 -8 2 -6 -5 -11 -16 -11 -14 0
-20 7 -20 23 0 12 -5 25 -10 28 -12 7 -4 25 11 25 5 0 9 -5 9 -11z m-458 -38
c-9 -16 -18 -28 -21 -26 -4 5 27 55 34 55 2 0 -4 -13 -13 -29z m2018 18 c0
-11 -27 -12 -34 -1 -2 4 4 9 15 9 10 1 19 -2 19 -8z m-1584 -38 c-4 -6 -15
-11 -24 -11 -15 1 -15 2 1 11 9 6 15 15 12 20 -4 5 -11 6 -17 3 -7 -5 -8 -2
-3 5 6 10 11 10 22 -2 9 -8 12 -20 9 -26z m-2249 7 c-3 -8 -6 -5 -6 6 -1 11 2
17 5 13 3 -3 4 -12 1 -19z m556 2 c13 -15 14 -20 3 -20 -7 0 -16 9 -19 20 -3
11 -4 20 -3 20 1 0 9 -9 19 -20z m147 -4 c0 -2 -8 -10 -17 -17 -16 -13 -17
-12 -4 4 13 16 21 21 21 13z m3163 -21 c-5 -25 -33 -57 -33 -37 0 6 5 14 10
17 6 3 10 15 10 26 0 10 4 19 9 19 4 0 6 -11 4 -25z m-3253 11 c0 -3 -4 -8
-10 -11 -5 -3 -10 -1 -10 4 0 6 5 11 10 11 6 0 10 -2 10 -4z m3217 -18 c-3 -8
-6 -5 -6 6 -1 11 2 17 5 13 3 -3 4 -12 1 -19z m124 5 c13 -16 12 -17 -3 -4
-17 13 -22 21 -14 21 2 0 10 -8 17 -17z m-3951 -20 c0 -19 -13 -9 -16 12 -1 8
2 13 7 9 5 -3 9 -12 9 -21z m2787 -10 c-3 -10 -5 -4 -5 12 0 17 2 24 5 18 2
-7 2 -21 0 -30z m-2730 -5 c-3 -8 -6 -5 -6 6 -1 11 2 17 5 13 3 -3 4 -12 1
-19z m593 18 c0 -2 -8 -10 -17 -17 -16 -13 -17 -12 -4 4 13 16 21 21 21 13z
m50 1 c0 -2 -10 -12 -22 -23 l-23 -19 19 23 c18 21 26 27 26 19z m1110 -88 c0
-49 -3 -88 -7 -86 -8 5 -5 177 3 177 2 0 4 -41 4 -91z m1505 81 c3 -6 -1 -7
-9 -4 -18 7 -21 14 -7 14 6 0 13 -4 16 -10z m579 -12 c-3 -4 -9 -8 -15 -8 -5
0 -9 4 -9 8 0 5 7 9 15 9 8 0 12 -4 9 -9z m46 -3 c0 -8 -7 -15 -15 -15 -13 0
-14 3 -3 15 16 18 18 18 18 0z m-1217 -77 c-8 -111 -14 -113 -12 -5 1 48 5 87
9 87 5 0 6 -37 3 -82z m-2728 62 c3 -5 1 -10 -4 -10 -6 0 -11 5 -11 10 0 6 2
10 4 10 3 0 8 -4 11 -10z m44 -3 c-2 -1 -15 -11 -29 -22 l-25 -20 19 23 c11
12 24 22 29 22 6 0 8 -1 6 -3z m661 0 c0 -2 -10 -12 -22 -23 l-23 -19 19 23
c18 21 26 27 26 19z m3192 -47 c-4 -40 -23 -68 -20 -30 1 14 -2 36 -6 48 -7
20 -5 23 11 20 14 -3 17 -11 15 -38z m568 -2 c0 -13 -5 -9 -31 19 l-24 26 27
-19 c15 -10 28 -22 28 -26z m-1576 19 c14 -10 16 -24 13 -67 l-3 -55 -2 56
c-2 61 -20 81 -51 57 -14 -12 -14 -11 -2 5 16 20 22 21 45 4z m935 1 c0 -7 -4
-22 -9 -33 -7 -17 -9 -15 -9 13 -1 17 4 32 9 32 6 0 10 -6 9 -12z m144 -3 c4
-8 2 -17 -3 -20 -6 -4 -10 3 -10 14 0 25 6 27 13 6z m514 -52 c-2 -16 -4 -5
-4 22 0 28 2 40 4 28 2 -13 2 -35 0 -50z m84 50 c13 -16 12 -17 -3 -5 -11 9
-18 10 -23 2 -8 -13 4 -32 16 -25 5 3 6 -1 2 -10 -5 -13 -7 -14 -14 -3 -7 11
-11 10 -20 -2 -8 -12 -9 -9 -3 10 6 22 22 50 29 50 1 0 9 -8 16 -17z m-4391
-13 c0 -5 -4 -10 -10 -10 -5 0 -10 5 -10 10 0 6 5 10 10 10 6 0 10 -4 10 -10z
m480 7 c0 -2 -10 -12 -22 -23 l-23 -19 19 23 c18 21 26 27 26 19z m1790 -1 c0
-2 -7 -7 -16 -10 -8 -3 -12 -2 -9 4 6 10 25 14 25 6z m1978 -9 c-7 -9 25 -36
36 -30 6 3 5 0 -3 -8 -10 -11 -15 -11 -18 -1 -3 6 -9 10 -14 7 -5 -4 -8 5 -7
19 1 14 4 23 6 21 2 -2 2 -5 0 -8z m-3728 -1 c0 -2 -8 -10 -17 -17 -16 -13
-17 -12 -4 4 13 16 21 21 21 13z m1744 -21 c-4 -8 -1 -15 5 -15 6 0 11 -4 11
-10 0 -12 -22 -9 -32 5 -4 5 -2 15 4 22 14 17 19 16 12 -2z m-2427 -1 c-3 -3
-12 -4 -19 -1 -8 3 -5 6 6 6 11 1 17 -2 13 -5z m1166 -1 c-7 -2 -19 -2 -25 0
-7 3 -2 5 12 5 14 0 19 -2 13 -5z m1067 -24 c0 -16 -4 -28 -9 -25 -8 5 -3 56
5 56 2 0 4 -14 4 -31z m597 -31 c-2 -13 -4 -3 -4 22 0 25 2 35 4 23 2 -13 2
-33 0 -45z m-2803 43 c3 -5 -6 -17 -20 -26 -26 -17 -25 -8 1 22 12 15 13 15
19 4z m61 -1 c3 -5 1 -10 -4 -10 -6 0 -11 5 -11 10 0 6 2 10 4 10 3 0 8 -4 11
-10z m72 -32 c-3 -7 -5 -2 -5 12 0 14 2 19 5 13 2 -7 2 -19 0 -25z m1440 -5
c-3 -10 -5 -4 -5 12 0 17 2 24 5 18 2 -7 2 -21 0 -30z m1275 -3 c2 -22 0 -40
-4 -40 -5 0 -8 18 -8 40 0 22 2 40 4 40 2 0 6 -18 8 -40z m1113 9 c-4 -11 -2
-25 3 -32 7 -8 6 -16 -2 -23 -9 -8 -12 1 -14 38 -1 32 2 47 8 43 6 -4 8 -16 5
-26z m436 4 c13 -16 12 -17 -3 -4 -17 13 -22 21 -14 21 2 0 10 -8 17 -17z
m109 8 c0 -17 -15 -19 -28 -5 -11 12 -9 14 8 14 11 0 20 -4 20 -9z m-2223 -23
c-3 -8 -6 -5 -6 6 -1 11 2 17 5 13 3 -3 4 -12 1 -19z m493 -10 c-1 -28 -2 -30
-11 -15 -6 10 -8 25 -5 33 9 24 16 16 16 -18z m1800 -1 c0 -5 -4 -5 -10 -2 -5
3 -10 14 -10 23 0 15 2 15 10 2 5 -8 10 -19 10 -23z m-4083 5 c-20 -22 -22
-38 -4 -45 7 -3 5 -6 -5 -6 -12 -1 -18 6 -18 20 0 12 8 28 18 35 24 19 28 17
9 -4z m73 6 c0 -6 -3 -8 -7 -5 -3 4 -13 1 -22 -6 -14 -11 -14 -10 -2 6 15 20
31 22 31 5z m1830 2 c0 -5 -2 -10 -4 -10 -3 0 -8 5 -11 10 -3 6 -1 10 4 10 6
0 11 -4 11 -10z m2046 -20 c-2 -16 1 -31 6 -34 4 -2 3 -3 -4 -2 -13 3 -16 66
-3 66 2 0 3 -13 1 -30z m-4441 10 c3 -5 -1 -10 -9 -10 -9 0 -16 5 -16 10 0 6
4 10 9 10 6 0 13 -4 16 -10z m65 6 c0 -2 -8 -10 -17 -17 -16 -13 -17 -12 -4 4
13 16 21 21 21 13z m1240 -12 c0 -2 -9 -4 -20 -4 -11 0 -20 4 -20 9 0 5 9 7
20 4 11 -3 20 -7 20 -9z m3101 -11 c13 -16 12 -17 -3 -4 -10 7 -18 15 -18 17
0 8 8 3 21 -13z m82 0 c-4 -10 -9 -11 -19 -2 -19 15 -18 18 5 16 11 -1 17 -6
14 -14z m-2290 -13 c-3 -11 -7 -20 -9 -20 -2 0 -4 9 -4 20 0 11 4 20 9 20 5 0
7 -9 4 -20z m1145 13 c-16 -2 -40 -2 -55 0 -16 2 -3 4 27 4 30 0 43 -2 28 -4z
m59 1 c-3 -3 -12 -4 -19 -1 -8 3 -5 6 6 6 11 1 17 -2 13 -5z m448 -4 c-3 -5
-12 -10 -18 -10 -7 0 -6 4 3 10 19 12 23 12 15 0z m-3858 -20 c1 -11 -2 -22
-8 -25 -10 -7 -13 28 -2 38 9 9 9 10 10 -13z m150 -17 c-3 -10 -5 -4 -5 12 0
17 2 24 5 18 2 -7 2 -21 0 -30z m2148 7 c1 -10 -2 -17 -7 -14 -4 3 -8 15 -8
26 0 26 13 15 15 -12z m1178 23 c-7 -2 -21 -2 -30 0 -10 3 -4 5 12 5 17 0 24
-2 18 -5z m1094 -25 c-3 -7 -5 -2 -5 12 0 14 2 19 5 13 2 -7 2 -19 0 -25z
m-651 -6 c-17 -16 -18 -16 -5 5 7 12 15 20 18 17 3 -2 -3 -12 -13 -22z m-1664
-49 c-2 -38 -6 -70 -9 -73 -6 -6 -2 122 4 133 9 15 10 5 5 -60z m147 53 c-9
-8 -89 -13 -89 -6 0 5 19 10 43 12 41 3 54 1 46 -6z m-2369 -32 c0 -19 -4 -33
-8 -30 -4 2 -7 17 -6 33 3 33 3 33 9 33 3 0 5 -16 5 -36z m4383 16 c-3 -12 -8
-19 -11 -16 -5 6 5 36 12 36 2 0 2 -9 -1 -20z m-1602 -7 c13 -16 12 -17 -3 -4
-17 13 -22 21 -14 21 2 0 10 -8 17 -17z m39 13 c0 -3 -4 -8 -10 -11 -5 -3 -10
-1 -10 4 0 6 5 11 10 11 6 0 10 -2 10 -4z m540 -6 c0 -13 -11 -13 -30 0 -12 8
-11 10 8 10 12 0 22 -4 22 -10z m30 0 c0 -5 -5 -10 -11 -10 -5 0 -7 5 -4 10 3
6 8 10 11 10 2 0 4 -4 4 -10z m530 6 c0 -2 -7 -9 -15 -16 -13 -11 -14 -10 -9
4 5 14 24 23 24 12z m564 -11 c-4 -8 -8 -15 -10 -15 -2 0 -4 7 -4 15 0 8 4 15
10 15 5 0 7 -7 4 -15z m-3222 -13 c-8 -2 -9 -9 -2 -22 7 -13 6 -19 -5 -24 -11
-4 -15 2 -15 23 0 32 8 43 23 34 8 -5 7 -8 -1 -11z m-1296 -1 c-3 -5 4 -20 15
-35 l21 -26 -26 10 c-14 5 -26 7 -26 3 0 -3 -2 -4 -5 -1 -7 6 12 58 20 58 4 0
4 -4 1 -9z m89 -1 c3 -5 1 -10 -4 -10 -6 0 -11 5 -11 10 0 6 2 10 4 10 3 0 8
-4 11 -10z m1075 0 c0 -5 -13 -10 -30 -10 -16 0 -30 5 -30 10 0 6 14 10 30 10
17 0 30 -4 30 -10z m2127 -12 c-3 -8 -6 -5 -6 6 -1 11 2 17 5 13 3 -3 4 -12 1
-19z m-3128 -41 c1 -5 -3 -5 -9 -2 -5 3 -10 16 -9 28 0 21 1 21 9 2 5 -11 9
-24 9 -28z m3229 36 c-10 -2 -28 -2 -40 0 -13 2 -5 4 17 4 22 1 32 -1 23 -4z
m95 -25 c-1 -18 -2 -39 -2 -45 -1 -7 -11 -13 -23 -12 -22 0 -22 1 -3 9 17 7
17 9 3 9 -21 1 -25 21 -4 21 18 0 15 33 -4 42 -10 4 -7 7 10 7 22 1 25 -3 23
-31z m-2372 -25 c2 -23 7 -39 12 -36 4 3 6 11 4 17 -3 7 4 18 14 24 18 11 19
9 19 -33 0 -47 -1 -48 -37 -39 -20 6 -23 13 -23 62 0 63 8 67 11 5z m495 11
c19 -3 37 -11 41 -17 4 -6 -2 -8 -16 -4 -18 4 -20 3 -10 -9 9 -12 5 -14 -25
-14 -36 0 -36 0 -35 43 1 23 3 34 6 25 2 -10 18 -20 39 -24z m764 26 c0 -5 -2
-10 -4 -10 -3 0 -8 5 -11 10 -3 6 -1 10 4 10 6 0 11 -4 11 -10z m334 -9 c13
-14 14 -21 5 -27 -7 -4 -10 -3 -5 4 3 6 -4 18 -16 26 -12 9 -18 16 -12 16 6 0
19 -9 28 -19z m-2614 -1 c0 -5 -2 -10 -4 -10 -3 0 -8 5 -11 10 -3 6 -1 10 4
10 6 0 11 -4 11 -10z m2120 1 c0 -6 -4 -13 -10 -16 -5 -3 -10 1 -10 9 0 9 5
16 10 16 6 0 10 -4 10 -9z m1101 -16 c-1 -5 -10 -9 -21 -8 -33 2 -36 3 -20 13
18 12 41 9 41 -5z m49 11 c0 -2 -7 -7 -16 -10 -8 -3 -12 -2 -9 4 6 10 25 14
25 6z m-1075 -26 c10 -11 16 -20 13 -20 -3 0 -13 9 -23 20 -10 11 -16 20 -13
20 3 0 13 -9 23 -20z m1541 5 c-6 -15 28 -40 43 -31 4 3 8 -1 8 -9 0 -12 -14
-15 -59 -15 -45 0 -58 3 -58 15 0 8 5 15 11 15 6 0 3 7 -5 16 -23 22 -21 24
25 24 32 0 40 -3 35 -15z m-3698 -32 c9 -7 13 -16 9 -19 -11 -11 -37 17 -36
40 0 14 2 16 6 6 3 -8 12 -21 21 -27z m1192 17 c0 -11 -6 -20 -12 -20 -9 0
-10 -3 -2 -8 21 -13 12 -42 -13 -42 -20 0 -23 5 -23 41 0 33 3 40 16 35 8 -3
12 -2 9 4 -3 6 1 10 9 10 9 0 16 -9 16 -20z m1470 10 c0 -5 -4 -10 -10 -10 -5
0 -10 5 -10 10 0 6 5 10 10 10 6 0 10 -4 10 -10z m617 -3 c3 -4 -10 -7 -31 -7
-20 0 -35 4 -32 8 5 9 53 8 63 -1z m-3387 -62 c-7 -54 -8 -56 -9 -17 -1 30 -5
42 -16 42 -8 0 -15 5 -15 11 0 6 9 9 20 6 14 -3 20 0 20 11 0 8 2 13 4 11 2
-2 1 -31 -4 -64z m2200 42 c10 -4 8 -6 -6 -6 -12 -1 -25 6 -28 15 -5 13 -3 14
6 7 7 -6 20 -13 28 -16z m527 1 c-3 -8 -6 -5 -6 6 -1 11 2 17 5 13 3 -3 4 -12
1 -19z m554 8 c5 3 9 0 9 -5 0 -6 -11 -11 -25 -11 -14 0 -25 4 -25 9 0 12 24
20 28 9 2 -4 8 -6 13 -2z m-3211 -53 c0 -7 -8 -13 -17 -13 -15 0 -16 2 -3 10
12 7 11 13 -10 37 l-25 28 28 -24 c15 -14 27 -30 27 -38z m450 32 c0 -8 -4
-15 -10 -15 -5 0 -7 7 -4 15 4 8 8 15 10 15 2 0 4 -7 4 -15z m1741 -2 c13 -16
12 -17 -3 -4 -17 13 -22 21 -14 21 2 0 10 -8 17 -17z m1107 10 c-10 -2 -28 -2
-40 0 -13 2 -5 4 17 4 22 1 32 -1 23 -4z m-2143 -35 c6 -4 2 -8 -7 -8 -10 0
-18 7 -18 17 0 9 3 12 8 7 4 -5 12 -12 17 -16z m2238 13 c4 -1 7 -17 5 -36 -2
-33 -4 -35 -40 -35 -36 0 -38 2 -38 30 0 17 -5 30 -11 30 -5 0 -7 -5 -4 -10 4
-6 4 -29 0 -50 -7 -40 -7 -40 -51 -40 l-44 0 0 45 c0 29 4 45 13 45 8 0 7 3
-3 10 -17 11 101 19 173 11z m24 -13 c-3 -8 -6 -5 -6 6 -1 11 2 17 5 13 3 -3
4 -12 1 -19z m-3520 -25 c-3 -10 -5 -4 -5 12 0 17 2 24 5 18 2 -7 2 -21 0 -30z
m1213 27 c0 -5 -7 -10 -15 -10 -8 0 -15 5 -15 10 0 6 7 10 15 10 8 0 15 -4 15
-10z m410 -20 c0 -25 -4 -30 -25 -30 -21 0 -25 5 -25 30 0 25 4 30 25 30 21 0
25 -5 25 -30z m42 0 c-2 -16 -8 -30 -13 -30 -5 0 -9 14 -9 30 0 18 5 30 13 30
9 0 12 -10 9 -30z m552 15 c3 -8 1 -15 -4 -15 -6 0 -10 7 -10 15 0 8 2 15 4
15 2 0 6 -7 10 -15z m-2073 -60 c-2 -5 -8 4 -12 20 -5 15 -5 33 -1 39 8 13 21
-44 13 -59z m3669 40 c0 -8 -6 -15 -14 -15 -7 0 -19 7 -26 15 -11 13 -8 15 14
15 16 0 26 -5 26 -15z m-2065 -17 c6 -4 0 -8 -12 -8 -16 0 -21 4 -16 15 3 9 8
12 12 8 3 -4 11 -11 16 -15z m1143 -21 c-6 -38 -28 -31 -28 8 0 33 2 36 15 25
9 -7 15 -22 13 -33z m-2260 26 c-10 -2 -26 -2 -35 0 -10 3 -2 5 17 5 19 0 27
-2 18 -5z m70 0 c-10 -2 -26 -2 -35 0 -10 3 -2 5 17 5 19 0 27 -2 18 -5z m632
-3 c0 -5 -11 -10 -24 -10 -14 0 -28 5 -31 10 -4 6 7 10 24 10 17 0 31 -4 31
-10z m900 0 c0 -5 -2 -10 -4 -10 -3 0 -8 5 -11 10 -3 6 -1 10 4 10 6 0 11 -4
11 -10z m613 3 c-7 -2 -21 -2 -30 0 -10 3 -4 5 12 5 17 0 24 -2 18 -5z m674
-15 c-3 -8 -6 -5 -6 6 -1 11 2 17 5 13 3 -3 4 -12 1 -19z m-3526 -5 c13 -16
12 -17 -3 -4 -10 7 -18 15 -18 17 0 8 8 3 21 -13z m109 -37 c0 -30 -4 -58 -10
-61 -6 -4 -10 17 -10 54 0 34 4 61 10 61 6 0 10 -24 10 -54z m-40 13 c0 -6 -4
-7 -10 -4 -5 3 -10 11 -10 16 0 6 5 7 10 4 6 -3 10 -11 10 -16z m-35 1 c3 -5
1 -10 -4 -10 -6 0 -11 5 -11 10 0 6 2 10 4 10 3 0 8 -4 11 -10z m612 4 c-3 -3
-12 -4 -19 -1 -8 3 -5 6 6 6 11 1 17 -2 13 -5z m62 -59 c-2 -64 -2 -65 -31
-65 -26 0 -28 2 -22 28 4 15 7 31 8 37 0 5 9 18 18 29 10 10 15 23 12 28 -3 4
0 8 6 8 7 0 10 -23 9 -65z m631 42 c0 -13 -6 -29 -12 -36 -10 -11 -10 -13 0
-7 8 5 12 -3 12 -28 0 -33 -3 -36 -27 -36 l-28 0 3 65 c4 61 5 65 28 65 18 0
24 -5 24 -23z m475 13 c-6 -10 -165 -8 -165 2 0 4 38 7 85 7 47 0 83 -4 80 -9z
m-1655 -35 c0 -5 -5 -3 -10 5 -5 8 -10 20 -10 25 0 6 5 3 10 -5 5 -8 10 -19
10 -25z m2244 27 c3 -5 -1 -9 -9 -9 -8 0 -15 4 -15 9 0 4 4 8 9 8 6 0 12 -4
15 -8z m-1757 -8 c-3 -3 -12 -4 -19 -1 -8 3 -5 6 6 6 11 1 17 -2 13 -5z m3848
-4 c3 -5 1 -10 -4 -10 -6 0 -11 5 -11 10 0 6 2 10 4 10 3 0 8 -4 11 -10z
m-4462 -41 c-8 -29 -13 -23 -13 14 0 22 3 28 9 18 5 -7 6 -22 4 -32z m37 31
c0 -5 -5 -10 -11 -10 -5 0 -7 5 -4 10 3 6 8 10 11 10 2 0 4 -4 4 -10z m528 3
c-10 -2 -28 -2 -40 0 -13 2 -5 4 17 4 22 1 32 -1 23 -4z m2192 -91 c0 -55 -3
-73 -12 -69 -13 4 -13 15 -9 127 2 75 21 25 21 -58z m1847 76 c-3 -8 -6 -5 -6
6 -1 11 2 17 5 13 3 -3 4 -12 1 -19z m-4010 -10 c-3 -8 -6 -5 -6 6 -1 11 2 17
5 13 3 -3 4 -12 1 -19z m-630 -35 c-3 -10 -5 -2 -5 17 0 19 2 27 5 18 2 -10 2
-26 0 -35z m586 16 c18 -1 24 -3 15 -6 -10 -2 -18 -11 -18 -20 0 -13 3 -13 15
-3 13 11 14 10 9 -4 -4 -10 -17 -16 -35 -16 -28 0 -29 2 -28 43 1 23 3 34 6
25 3 -12 15 -18 36 -19z m2155 24 c-10 -2 -26 -2 -35 0 -10 3 -2 5 17 5 19 0
27 -2 18 -5z m-2668 -18 c0 -8 -2 -15 -4 -15 -2 0 -6 7 -10 15 -3 8 -1 15 4
15 6 0 10 -7 10 -15z m4425 5 c3 -5 1 -10 -4 -10 -6 0 -11 5 -11 10 0 6 2 10
4 10 3 0 8 -4 11 -10z m-1746 -65 c1 -60 -1 -65 -19 -65 -12 0 -18 5 -15 10 3
6 2 10 -4 10 -5 0 -18 3 -28 7 -16 6 -16 5 -4 -10 12 -15 12 -17 -3 -11 -9 3
-16 17 -16 30 0 25 15 33 23 12 3 -7 6 7 7 32 1 25 4 37 7 27 5 -19 27 -18 29
1 2 20 4 22 13 22 5 0 9 -29 10 -65z m-2594 33 c-4 -37 -4 -38 -16 -38 -8 0
-9 4 0 13 6 8 8 17 5 20 -3 3 -3 10 1 16 10 17 13 13 10 -11z m362 16 c-3 -3
-12 -4 -19 -1 -8 3 -5 6 6 6 11 1 17 -2 13 -5z m-12 -35 c-10 -15 -25 -10 -19
6 4 8 10 12 15 9 5 -3 7 -10 4 -15z m130 1 c3 -5 1 -10 -4 -10 -6 0 -11 5 -11
10 0 6 2 10 4 10 3 0 8 -4 11 -10z m3856 -17 c13 -16 12 -17 -3 -4 -17 13 -22
21 -14 21 2 0 10 -8 17 -17z m-3971 -9 c0 -4 -8 -13 -17 -20 -15 -11 -15 -13
-3 -14 10 0 17 -11 18 -30 2 -25 -1 -30 -21 -30 -20 0 -22 4 -20 40 1 22 5 45
8 50 7 11 35 14 35 4z m119 -20 c10 -9 -35 -3 -49 6 -11 8 -7 9 15 4 17 -4 32
-8 34 -10z m81 1 c0 -10 -10 -15 -30 -15 -20 0 -30 5 -30 15 0 10 10 15 30 15
20 0 30 -5 30 -15z m617 -2 c0 -8 -12 -13 -29 -13 -18 0 -28 5 -28 15 0 11 9
15 28 13 16 -1 29 -8 29 -15z m2653 7 c12 -8 11 -10 -7 -10 -13 0 -23 5 -23
10 0 13 11 13 30 0z m-3827 -107 c-13 -2 -35 -2 -50 0 -16 2 -5 4 22 4 28 0
40 -2 28 -4z m4277 -24 c0 -13 5 -19 16 -17 8 2 14 8 14 13 -1 6 -7 9 -13 7
-9 -3 -9 0 0 8 9 10 18 9 41 -1 17 -7 28 -17 26 -21 -5 -7 11 -12 29 -9 18 3
67 -34 67 -51 0 -16 -10 -18 -85 -18 -65 0 -85 3 -85 14 0 9 -8 12 -25 8 -24
-4 -25 -2 -25 42 0 39 3 46 20 46 14 0 20 -7 20 -21z m-4260 -45 c0 -23 -3
-24 -62 -24 -39 0 -58 4 -49 9 8 5 9 11 3 15 -5 3 -12 -1 -16 -9 -3 -9 -18
-15 -37 -15 l-31 0 23 19 c16 13 37 18 71 17 29 -1 49 3 52 10 8 22 46 4 46
-22z m10 -59 c0 -10 -26 -14 -106 -14 -80 -1 -105 2 -102 12 3 7 33 14 84 17
94 6 124 2 124 -15z m4197 -7 c-3 -7 -5 -2 -5 12 0 14 2 19 5 13 2 -7 2 -19 0
-25z m-4020 -320 c-3 -8 -6 -5 -6 6 -1 11 2 17 5 13 3 -3 4 -12 1 -19z m1093
-88 c-7 -5 -20 -6 -28 -2 -11 4 -13 1 -7 -7 4 -8 2 -17 -6 -22 -23 -15 -34
-10 -13 6 13 10 15 14 5 15 -22 0 -4 13 22 15 15 1 21 8 19 21 -2 18 -2 18 9
0 9 -14 8 -20 -1 -26z m-1493 -32 c-3 -8 -6 -5 -6 6 -1 11 2 17 5 13 3 -3 4
-12 1 -19z m1293 -112 c0 -2 -19 -15 -42 -30 l-43 -27 35 31 c30 27 50 37 50
26z m1765 -354 c-3 -3 -11 0 -18 7 -9 10 -8 11 6 5 10 -3 15 -9 12 -12z m1484
-289 c0 -148 -3 -262 -6 -255 -2 6 -9 10 -14 6 -15 -9 -12 489 3 504 7 7 13
12 15 12 2 0 3 -120 2 -267z m-4149 213 c0 -3 -4 -8 -10 -11 -5 -3 -10 -1 -10
4 0 6 5 11 10 11 6 0 10 -2 10 -4z m-150 -89 c0 -9 -82 -68 -87 -63 -6 6 11
24 47 49 23 16 40 22 40 14z m-155 -127 c-28 -12 -37 -12 -30 0 3 6 16 10 28
9 21 0 21 -1 2 -9z m84 -170 c-1 -60 -6 -83 -18 -92 -14 -12 -14 -11 -2 5 7 9
9 17 4 17 -11 0 -18 124 -8 140 17 28 26 3 24 -70z"/>
<path d="M1291 4171 c-10 -6 -10 -10 -1 -16 13 -8 24 -1 19 14 -3 6 -10 7 -18
2z"/>
<path d="M1642 3850 c0 -14 2 -19 5 -12 2 6 2 18 0 25 -3 6 -5 1 -5 -13z"/>
<path d="M1672 3250 c0 -19 2 -27 5 -17 2 9 2 25 0 35 -3 9 -5 1 -5 -18z"/>
<path d="M1673 2800 c0 -25 2 -35 4 -22 2 12 2 32 0 45 -2 12 -4 2 -4 -23z"/>
<path d="M1670 2695 c0 -32 3 -55 7 -51 7 7 5 98 -3 105 -2 2 -4 -22 -4 -54z"/>
<path d="M1413 2623 c9 -2 23 -2 30 0 6 3 -1 5 -18 5 -16 0 -22 -2 -12 -5z"/>
<path d="M1481 2534 c0 -11 3 -14 6 -6 3 7 2 16 -1 19 -3 4 -6 -2 -5 -13z"/>
<path d="M1672 2450 c0 -14 2 -19 5 -12 2 6 2 18 0 25 -3 6 -5 1 -5 -13z"/>
<path d="M1430 2440 c-23 -7 -23 -8 -3 -9 18 -1 23 -8 26 -38 3 -35 4 -34 5
10 1 26 1 47 0 46 -2 -1 -14 -5 -28 -9z"/>
<path d="M905 2399 c-11 -16 -1 -19 13 -3 7 8 8 14 3 14 -5 0 -13 -5 -16 -11z"/>
<path d="M1475 2360 c-4 -6 6 -10 22 -10 22 0 25 2 13 10 -19 12 -27 12 -35 0z"/>
<path d="M772 2330 c0 -14 2 -19 5 -12 2 6 2 18 0 25 -3 6 -5 1 -5 -13z"/>
<path d="M1513 2273 c9 -2 25 -2 35 0 9 3 1 5 -18 5 -19 0 -27 -2 -17 -5z"/>
<path d="M810 2190 c-11 -7 -1 -9 35 -9 40 1 45 3 25 9 -35 11 -43 11 -60 0z"/>
<path d="M771 2153 c-1 -16 5 -23 17 -23 10 0 13 3 6 8 -6 4 -14 14 -17 22 -4
10 -6 8 -6 -7z"/>
<path d="M1503 2133 c9 -2 25 -2 35 0 9 3 1 5 -18 5 -19 0 -27 -2 -17 -5z"/>
<path d="M771 2094 c0 -11 3 -14 6 -6 3 7 2 16 -1 19 -3 4 -6 -2 -5 -13z"/>
<path d="M813 2033 c15 -2 39 -2 55 0 15 2 2 4 -28 4 -30 0 -43 -2 -27 -4z"/>
<path d="M1018 1923 c7 -3 16 -2 19 1 4 3 -2 6 -13 5 -11 0 -14 -3 -6 -6z"/>
<path d="M912 1804 c8 -9 23 -14 33 -12 12 2 7 7 -16 15 -30 12 -32 11 -17 -3z"/>
<path d="M1539 1793 c-13 -16 -12 -17 4 -4 9 7 17 15 17 17 0 8 -8 3 -21 -13z"/>
<path d="M1048 1793 c6 -2 18 -2 25 0 6 3 1 5 -13 5 -14 0 -19 -2 -12 -5z"/>
<path d="M968 1753 c6 -2 18 -2 25 0 6 3 1 5 -13 5 -14 0 -19 -2 -12 -5z"/>
<path d="M1445 1740 c-3 -5 -1 -10 4 -10 6 0 11 5 11 10 0 6 -2 10 -4 10 -3 0
-8 -4 -11 -10z"/>
<path d="M1458 1726 c-10 -7 -18 -17 -18 -21 0 -4 -8 -14 -17 -22 -10 -8 -2
-5 18 6 20 11 39 18 42 15 3 -3 3 3 0 15 -3 12 -6 21 -7 21 0 0 -9 -7 -18 -14z"/>
<path d="M1022 1695 c9 -10 21 -16 28 -13 7 2 -1 10 -16 17 -27 12 -28 11 -12
-4z"/>
<path d="M1070 1647 c0 -1 9 -10 20 -20 19 -16 20 -16 20 3 0 13 -7 20 -20 20
-11 0 -20 -1 -20 -3z"/>
<path d="M1313 1601 c-9 -15 -9 -19 0 -17 21 3 38 17 32 27 -9 14 -19 11 -32
-10z"/>
<path d="M1363 1598 c-2 -16 1 -18 10 -9 7 7 8 14 1 21 -6 6 -10 2 -11 -12z"/>
<path d="M1175 1560 c-3 -5 1 -10 10 -10 9 0 13 5 10 10 -3 6 -8 10 -10 10 -2
0 -7 -4 -10 -10z"/>
<path d="M1923 2438 c-10 -4 6 -7 40 -7 31 -1 57 1 57 3 0 8 -80 11 -97 4z"/>
<path d="M1853 2433 c9 -2 23 -2 30 0 6 3 -1 5 -18 5 -16 0 -22 -2 -12 -5z"/>
<path d="M1920 2390 c0 -16 -7 -20 -32 -21 -23 -1 -16 -4 22 -10 36 -5 58 -4
65 3 7 7 6 9 -2 4 -20 -11 -44 5 -38 25 4 11 2 19 -4 19 -6 0 -11 -9 -11 -20z"/>
<path d="M2518 2233 c7 -3 16 -2 19 1 4 3 -2 6 -13 5 -11 0 -14 -3 -6 -6z"/>
<path d="M2533 2193 c20 -2 54 -2 75 0 20 2 3 4 -38 4 -41 0 -58 -2 -37 -4z"/>
<path d="M1830 2166 c0 -2 7 -9 15 -16 9 -7 15 -8 15 -2 0 5 -7 12 -15 16 -8
3 -15 4 -15 2z"/>
<path d="M1905 2105 c53 -48 68 -55 86 -44 10 6 8 9 -12 9 -14 0 -36 11 -50
26 -13 14 -33 30 -44 35 -11 6 -2 -6 20 -26z"/>
<path d="M2308 2063 c6 -2 18 -2 25 0 6 3 1 5 -13 5 -14 0 -19 -2 -12 -5z"/>
<path d="M2378 2063 c7 -3 16 -2 19 1 4 3 -2 6 -13 5 -11 0 -14 -3 -6 -6z"/>
<path d="M2690 2061 c0 -6 4 -13 10 -16 6 -3 7 1 4 9 -7 18 -14 21 -14 7z"/>
<path d="M2490 2039 c0 -5 5 -7 10 -4 6 3 10 8 10 11 0 2 -4 4 -10 4 -5 0 -10
-5 -10 -11z"/>
<path d="M2045 1996 c16 -13 36 -21 44 -18 11 4 7 8 -12 15 -15 5 -25 13 -21
18 3 5 -5 9 -18 9 -22 0 -22 -1 7 -24z"/>
<path d="M2228 1993 c12 -2 32 -2 45 0 12 2 2 4 -23 4 -25 0 -35 -2 -22 -4z"/>
<path d="M2385 1990 c22 -5 44 -4 50 1 5 5 -11 9 -40 8 l-50 -1 40 -8z"/>
<path d="M2510 1976 c0 -2 9 -6 20 -9 11 -3 18 -1 14 4 -5 9 -34 13 -34 5z"/>
<path d="M2135 1930 c3 -5 8 -10 11 -10 2 0 4 5 4 10 0 6 -5 10 -11 10 -5 0
-7 -4 -4 -10z"/>
<path d="M2046 1917 c3 -10 9 -15 12 -12 3 3 0 11 -7 18 -10 9 -11 8 -5 -6z"/>
<path d="M2145 1801 c-3 -6 3 -15 14 -20 16 -9 18 -8 14 9 -6 21 -18 26 -28
11z"/>
<path d="M512 3320 c0 -14 2 -19 5 -12 2 6 2 18 0 25 -3 6 -5 1 -5 -13z"/>
<path d="M511 3164 c0 -11 3 -14 6 -6 3 7 2 16 -1 19 -3 4 -6 -2 -5 -13z"/>
<path d="M346 2141 c-3 -4 6 -6 19 -3 14 2 25 6 25 8 0 8 -39 4 -44 -5z"/>
<path d="M348 1943 c6 -2 18 -2 25 0 6 3 1 5 -13 5 -14 0 -19 -2 -12 -5z"/>
<path d="M340 1900 c0 -5 18 -10 40 -10 22 0 40 5 40 10 0 6 -18 10 -40 10
-22 0 -40 -4 -40 -10z"/>
<path d="M375 1800 l-70 -6 78 -2 c50 -1 76 2 72 8 -3 6 -7 9 -8 8 -1 -1 -33
-4 -72 -8z"/>
<path d="M434 1697 c-7 -8 -8 -23 -2 -45 7 -24 5 -41 -6 -63 -13 -26 -13 -30
-1 -26 8 4 16 -1 18 -11 3 -9 5 22 6 71 0 48 0 87 -1 87 -2 -1 -8 -6 -14 -13z"/>
<path d="M222 1570 c0 -14 2 -19 5 -12 2 6 2 18 0 25 -3 6 -5 1 -5 -13z"/>
<path d="M431 1521 c-10 -6 -9 -10 3 -14 8 -3 18 -2 21 3 8 13 -9 20 -24 11z"/>
<path d="M435 1470 c-3 -5 -1 -10 4 -10 6 0 11 5 11 10 0 6 -2 10 -4 10 -3 0
-8 -4 -11 -10z"/>
<path d="M455 1420 c9 -30 21 -45 28 -33 3 5 -3 20 -14 33 l-20 25 6 -25z"/>
<path d="M436 1245 c-12 -9 -15 -15 -7 -15 11 0 11 -3 0 -17 -13 -16 -12 -17
4 -4 9 8 15 16 12 19 -3 3 0 11 6 19 15 17 9 16 -15 -2z"/>
<path d="M3561 2544 c0 -11 3 -14 6 -6 3 7 2 16 -1 19 -3 4 -6 -2 -5 -13z"/>
<path d="M3671 2534 c0 -11 3 -14 6 -6 3 7 2 16 -1 19 -3 4 -6 -2 -5 -13z"/>
<path d="M3112 2515 c0 -16 2 -22 5 -12 2 9 2 23 0 30 -3 6 -5 -1 -5 -18z"/>
<path d="M3627 2409 c7 -7 15 -10 18 -7 3 3 -2 9 -12 12 -14 6 -15 5 -6 -5z"/>
<path d="M3688 2403 c6 -2 18 -2 25 0 6 3 1 5 -13 5 -14 0 -19 -2 -12 -5z"/>
<path d="M2976 2221 c-4 -5 3 -7 14 -4 23 6 26 13 6 13 -8 0 -17 -4 -20 -9z"/>
<path d="M3038 2213 c7 -3 16 -2 19 1 4 3 -2 6 -13 5 -11 0 -14 -3 -6 -6z"/>
<path d="M2938 2183 c7 -3 16 -2 19 1 4 3 -2 6 -13 5 -11 0 -14 -3 -6 -6z"/>
<path d="M3619 1858 c-5 -187 -2 -568 4 -568 4 0 7 135 7 300 0 165 -2 300 -5
300 -3 0 -5 -15 -6 -32z"/>
<path d="M2910 1781 c0 -5 5 -13 10 -16 6 -3 10 -2 10 4 0 5 -4 13 -10 16 -5
3 -10 2 -10 -4z"/>
<path d="M3281 1563 c-1 -6 -4 -20 -7 -30 -5 -17 -5 -17 6 0 6 10 9 23 6 30
-3 9 -5 9 -5 0z"/>
<path d="M3174 1535 c3 -22 13 -27 19 -11 3 8 0 17 -8 19 -7 3 -12 0 -11 -8z"/>
<path d="M3350 1539 c0 -5 5 -7 10 -4 6 3 10 8 10 11 0 2 -4 4 -10 4 -5 0 -10
-5 -10 -11z"/>
<path d="M3942 3255 c0 -16 2 -22 5 -12 2 9 2 23 0 30 -3 6 -5 -1 -5 -18z"/>
<path d="M4340 3205 c0 -3 -1 -104 -1 -223 -1 -119 -1 -431 0 -692 l1 -475 53
-36 c28 -20 63 -43 77 -52 l25 -16 -2 132 c-4 204 -3 218 14 244 14 21 14 26
2 34 -10 6 -11 11 -3 17 12 8 14 83 1 75 -10 -6 -3 28 11 55 11 18 10 22 -1
22 -19 0 -27 31 -27 101 0 43 5 60 20 74 23 21 18 35 -10 28 -17 -5 -20 -1
-16 18 3 13 5 39 5 57 1 18 5 31 9 28 4 -3 13 8 19 25 12 31 0 40 -16 12 -8
-14 -10 -10 -11 22 0 22 8 51 17 64 9 14 11 21 5 17 -21 -13 -25 24 -6 47 14
16 15 18 2 9 -15 -12 -17 -7 -20 49 -1 33 1 63 6 66 4 3 6 23 3 44 -3 22 -1
39 4 39 5 0 9 7 9 15 0 8 -4 15 -8 15 -15 0 -5 66 18 110 20 39 24 43 31 25 6
-15 8 -11 8 18 l1 37 -110 0 c-60 0 -110 -2 -110 -5z"/>
<path d="M3941 2934 c0 -11 3 -14 6 -6 3 7 2 16 -1 19 -3 4 -6 -2 -5 -13z"/>
<path d="M4098 2563 c7 -3 16 -2 19 1 4 3 -2 6 -13 5 -11 0 -14 -3 -6 -6z"/>
<path d="M4542 2538 c-7 -9 -6 -17 4 -26 12 -11 14 -9 14 13 0 28 -3 30 -18
13z"/>
<path d="M4048 2403 c7 -3 16 -2 19 1 4 3 -2 6 -13 5 -11 0 -14 -3 -6 -6z"/>
<path d="M4540 2375 c-8 -9 -8 -15 -2 -15 12 0 26 19 19 26 -2 2 -10 -2 -17
-11z"/>
<path d="M4511 2354 c0 -11 3 -14 6 -6 3 7 2 16 -1 19 -3 4 -6 -2 -5 -13z"/>
<path d="M4058 2343 c7 -3 16 -2 19 1 4 3 -2 6 -13 5 -11 0 -14 -3 -6 -6z"/>
<path d="M4123 2343 c15 -2 39 -2 55 0 15 2 2 4 -28 4 -30 0 -43 -2 -27 -4z"/>
<path d="M4545 2311 c-3 -5 -1 -12 5 -16 5 -3 10 1 10 9 0 18 -6 21 -15 7z"/>
<path d="M4545 2260 c-3 -5 -1 -10 4 -10 6 0 11 5 11 10 0 6 -2 10 -4 10 -3 0
-8 -4 -11 -10z"/>
<path d="M4612 2070 c2 -38 8 -70 13 -70 6 0 9 28 7 70 -2 38 -8 70 -13 70 -6
0 -9 -29 -7 -70z"/>
<path d="M4811 2124 c0 -11 3 -14 6 -6 3 7 2 16 -1 19 -3 4 -6 -2 -5 -13z"/>
<path d="M4720 2102 c0 -5 7 -9 15 -9 8 0 15 4 15 9 0 4 -7 8 -15 8 -8 0 -15
-4 -15 -8z"/>
<path d="M4542 2070 c0 -14 2 -19 5 -12 2 6 2 18 0 25 -3 6 -5 1 -5 -13z"/>
<path d="M4810 2050 c0 -5 5 -10 11 -10 5 0 7 5 4 10 -3 6 -8 10 -11 10 -2 0
-4 -4 -4 -10z"/>
<path d="M4088 2003 c7 -3 16 -2 19 1 4 3 -2 6 -13 5 -11 0 -14 -3 -6 -6z"/>
<path d="M4168 2003 c6 -2 18 -2 25 0 6 3 1 5 -13 5 -14 0 -19 -2 -12 -5z"/>
<path d="M4616 1971 c-4 -5 -2 -12 3 -15 5 -4 12 -2 15 3 4 5 2 12 -3 15 -5 4
-12 2 -15 -3z"/>
<path d="M4618 1893 c7 -3 16 -2 19 1 4 3 -2 6 -13 5 -11 0 -14 -3 -6 -6z"/>
<path d="M4778 1893 c7 -3 16 -2 19 1 4 3 -2 6 -13 5 -11 0 -14 -3 -6 -6z"/>
<path d="M4510 1740 c0 -11 2 -20 5 -20 2 0 9 9 15 20 9 16 8 20 -5 20 -8 0
-15 -9 -15 -20z"/>
<path d="M4735 1610 c3 -5 8 -10 11 -10 2 0 4 5 4 10 0 6 -5 10 -11 10 -5 0
-7 -4 -4 -10z"/>
<path d="M4002 1515 c0 -16 2 -22 5 -12 2 9 2 23 0 30 -3 6 -5 -1 -5 -18z"/>
<path d="M4508 1523 c7 -3 16 -2 19 1 4 3 -2 6 -13 5 -11 0 -14 -3 -6 -6z"/>
<path d="M4770 1426 c0 -9 30 -14 35 -6 4 6 -3 10 -14 10 -12 0 -21 -2 -21 -4z"/>
<path d="M4711 1368 c-1 -13 -10 -18 -33 -19 -32 0 -32 -1 -9 -10 28 -11 57 9
48 33 -4 9 -6 7 -6 -4z"/>
<path d="M4600 1280 c-23 -7 -23 -8 -3 -9 12 -1 25 4 28 9 3 6 5 10 3 9 -2 -1
-14 -5 -28 -9z"/>
<path d="M4000 1266 c0 -9 7 -16 16 -16 17 0 14 22 -4 28 -7 2 -12 -3 -12 -12z"/>
<path d="M4180 1213 c-8 -4 -21 -13 -30 -22 -13 -13 -13 -14 3 -8 10 4 22 7
27 7 4 0 10 7 14 15 3 8 4 15 3 14 -1 0 -9 -3 -17 -6z"/>
<path d="M4337 1093 c-12 -11 -8 -23 8 -23 8 0 15 7 15 15 0 16 -12 20 -23 8z"/>
<path d="M1081 3150 c31 -64 46 -155 25 -164 -7 -3 -6 -5 2 -5 8 -1 17 9 20
22 l6 22 6 -24 c3 -13 3 -53 -1 -90 -3 -36 -2 -74 3 -84 5 -10 7 -28 5 -40 -3
-18 -5 -17 -6 6 0 16 -5 26 -9 23 -12 -7 -2 -76 12 -76 6 0 4 -5 -4 -10 -10
-7 -11 -12 -4 -17 12 -9 28 -47 16 -39 -4 2 -8 -23 -8 -57 -1 -35 -6 -63 -13
-65 -6 -2 -11 -17 -11 -33 0 -18 4 -28 10 -24 6 3 10 -1 10 -10 0 -9 -5 -13
-11 -9 -8 4 -7 0 1 -15 6 -12 10 -39 8 -59 -2 -29 -7 -36 -20 -34 -10 2 -18
-2 -18 -8 0 -5 0 -13 0 -17 0 -4 8 -8 17 -8 17 0 18 -2 28 -117 5 -61 4 -67
-12 -61 -12 5 -15 2 -11 -8 3 -8 1 -25 -3 -38 -8 -19 -12 -21 -24 -11 -8 7
-15 8 -15 2 0 -28 48 -34 53 -6 1 5 6 8 11 6 5 -2 38 16 73 40 l63 43 0 512 0
513 -114 0 -115 0 30 -60z m116 -6 c-3 -3 -12 -4 -19 -1 -8 3 -5 6 6 6 11 1
17 -2 13 -5z"/>
<path d="M1115 2952 c-12 -8 -13 -27 -3 -38 9 -8 22 20 16 35 -1 6 -8 7 -13 3z"/>
<path d="M1085 2535 c0 -13 3 -21 8 -18 4 2 7 10 7 18 0 8 -3 16 -7 18 -5 3
-8 -5 -8 -18z"/>
<path d="M1050 2411 c0 -25 6 -27 13 -6 4 8 2 17 -3 20 -6 4 -10 -3 -10 -14z"/>
<path d="M1051 2194 c0 -11 3 -14 6 -6 3 7 2 16 -1 19 -3 4 -6 -2 -5 -13z"/>
<path d="M3225 3198 c-3 -7 -3 -38 -1 -68 2 -30 5 -255 6 -500 l1 -445 63 -52
63 -52 31 32 c30 32 31 33 32 147 1 63 1 183 1 266 -1 83 2 160 6 169 5 14 3
16 -7 10 -9 -6 -11 -4 -5 5 10 16 13 160 4 160 -4 0 -3 17 1 37 5 20 6 49 3
65 -8 39 4 35 16 -4 7 -26 9 -11 10 72 0 76 -2 100 -10 87 -5 -9 -8 -21 -4
-26 3 -5 0 -13 -6 -17 -9 -5 -10 3 -5 30 5 26 3 36 -6 37 -7 0 -3 4 10 9 12 6
22 18 22 30 0 19 -6 20 -110 20 -79 0 -112 -4 -115 -12z m215 -158 c0 -5 -4
-10 -10 -10 -5 0 -10 5 -10 10 0 6 5 10 10 10 6 0 10 -4 10 -10z"/>
<path d="M3435 2380 c-3 -5 -1 -10 4 -10 6 0 11 5 11 10 0 6 -2 10 -4 10 -3 0
-8 -4 -11 -10z"/>
<path d="M2141 3125 c1 -46 6 -82 10 -79 7 4 5 -257 -2 -281 -2 -5 2 -19 8
-30 12 -23 6 -85 -10 -85 -6 0 -7 -22 -3 -62 3 -35 8 -82 10 -105 3 -25 0 -43
-5 -43 -6 0 -8 -14 -4 -32 3 -18 7 -39 7 -46 1 -6 25 -30 54 -52 l52 -39 61
44 61 45 0 425 0 425 -120 0 -120 0 1 -85z m219 68 c0 -5 -11 -9 -25 -9 -14
-1 -25 2 -25 7 0 5 11 9 25 9 14 0 25 -3 25 -7z"/>
<path d="M3600 2676 c0 -9 30 -14 35 -6 4 6 -3 10 -14 10 -12 0 -21 -2 -21 -4z"/>
<path d="M1563 2593 c-17 -6 -16 -20 0 -26 8 -3 14 3 14 14 1 10 1 19 0 18 -1
0 -8 -3 -14 -6z"/>
</g>
</svg>
