<?xml version="1.0" standalone="no"?>
<!DOCTYPE svg PUBLIC "-//W3C//DTD SVG 20010904//EN"
 "http://www.w3.org/TR/2001/REC-SVG-20010904/DTD/svg10.dtd">
<svg version="1.0" xmlns="http://www.w3.org/2000/svg"
 width="921.000000pt" height="921.000000pt" viewBox="0 0 921.000000 921.000000"
 preserveAspectRatio="xMidYMid meet">
<metadata>
Created by potrace 1.14, written by Peter Selinger 2001-2017
</metadata>
<g transform="translate(0.000000,921.000000) scale(0.100000,-0.100000)"
fill="#000000" stroke="none">
<path d="M0 4605 l0 -4605 4605 0 4605 0 0 4605 0 4605 -4605 0 -4605 0 0
-4605z m8480 0 l0 -3875 -3875 0 -3875 0 0 3875 0 3875 3875 0 3875 0 0 -3875z"/>
<path d="M920 4605 l0 -3685 3685 0 3685 0 0 3685 0 3685 -3685 0 -3685 0 0
-3685z m1090 1510 l0 -595 -235 0 -235 0 0 595 0 595 235 0 235 0 0 -595z
m1410 -1227 l0 -1822 475 961 475 960 0 862 0 861 235 0 235 0 2 -1815 3
-1815 310 627 c170 346 487 986 705 1423 l395 795 5 -1422 5 -1421 473 956
472 956 0 858 0 858 235 0 235 0 0 -1940 0 -1940 -710 0 -710 0 0 -455 0 -455
-235 0 -235 0 0 455 0 455 -2125 0 -2125 0 0 1310 0 1310 235 0 235 0 2 -1181
3 -1181 468 947 467 947 0 864 0 864 235 0 235 0 0 -1822z"/>
<path d="M1680 6115 l0 -445 90 0 90 0 0 445 0 445 -90 0 -90 0 0 -445z"/>
<path d="M3100 5751 l0 -809 -454 -918 c-249 -506 -467 -947 -485 -981 l-31
-63 570 0 570 0 0 1790 0 1790 -85 0 -85 0 0 -809z m0 -1906 l0 -695 -345 0
c-190 0 -345 2 -345 5 0 13 678 1385 685 1385 3 0 5 -313 5 -695z"/>
<path d="M2797 3605 c-81 -162 -147 -297 -147 -300 0 -3 68 -5 150 -5 l150 0
0 300 c0 165 -1 300 -3 300 -1 0 -68 -133 -150 -295z"/>
<path d="M4520 5754 l0 -806 -451 -912 c-248 -501 -466 -944 -485 -983 l-33
-73 569 0 570 0 0 1790 0 1790 -85 0 -85 0 0 -806z m0 -1909 l0 -695 -349 0
-350 0 273 553 c150 303 304 616 342 694 38 78 72 142 77 142 4 1 7 -312 7
-694z"/>
<path d="M4219 3614 c-79 -163 -145 -300 -147 -305 -2 -5 62 -9 147 -9 l151 0
0 305 c0 168 -1 305 -3 305 -2 0 -68 -133 -148 -296z"/>
<path d="M7360 5757 l0 -803 -485 -982 c-267 -540 -485 -984 -485 -987 0 -3
257 -5 570 -5 l570 0 0 1790 0 1790 -85 0 -85 0 0 -803z m0 -1912 l0 -695
-351 0 c-199 0 -349 4 -347 9 18 48 684 1381 690 1381 4 0 8 -313 8 -695z"/>
<path d="M7053 3609 l-153 -309 155 0 155 0 0 310 c0 171 -1 310 -2 309 -2 0
-72 -140 -155 -310z"/>
<path d="M1680 4140 l0 -1160 90 0 90 0 0 1160 0 1160 -90 0 -90 0 0 -1160z"/>
<path d="M5540 4145 c-311 -630 -566 -1150 -568 -1155 -2 -7 170 -10 482 -10
l486 0 0 -460 0 -460 85 0 85 0 0 1615 c0 888 -1 1615 -2 1615 -2 0 -257 -516
-568 -1145z m400 -300 l0 -695 -351 0 c-192 0 -349 3 -346 8 2 4 156 316 342
695 187 378 343 687 347 687 4 0 8 -313 8 -695z"/>
<path d="M5632 3605 l-152 -305 155 0 155 0 0 305 c0 168 -1 305 -3 305 -1 0
-71 -137 -155 -305z"/>
</g>
</svg>
